<svg width="154" height="93" viewBox="0 0 154 93" fill="none" xmlns="http://www.w3.org/2000/svg">
<path d="M121.554 77.5936C120.715 78.1823 119.91 78.8057 119.14 79.4637C119.175 83.2386 117.741 92.6239 113.998 92.9009C112.389 93.0048 111.794 91.204 111.689 89.8879C111.374 85.7667 114.977 81.507 118.091 78.7711L118.056 78.2862C117.986 77.4204 117.741 75.3079 116.901 75.3771C115.292 75.481 111.619 82.165 108.995 82.3382C108.051 82.4074 107.281 81.6455 107.211 80.468C107.036 78.2516 108.96 74.8923 112.039 74.6845C112.983 74.6152 113.928 74.8576 114.663 75.481C115.187 74.9962 115.782 74.4421 116.447 74.4074C118.056 74.3035 118.861 76.2775 119.07 77.9745C119.595 77.5589 122.289 75.5156 122.709 75.481C123.024 75.4464 123.443 75.862 123.478 76.1737C123.478 76.4853 123.268 76.3468 121.554 77.5936ZM114.103 76.0351C113.718 75.6888 113.158 75.6542 112.599 75.6888C109.765 75.8966 108.086 79.0135 108.226 80.9875C108.261 81.4031 108.331 81.4377 108.436 81.4377H108.506C109.975 81.2992 112.878 77.3165 114.103 76.0351ZM118.091 80.4334C115.467 82.8923 112.459 86.7364 112.739 90.3382C112.773 90.8923 112.913 91.9659 113.438 91.9312C115.922 91.7234 117.846 85.3165 118.091 80.4334Z" fill="#C2A57A"/>
<path d="M129.67 77.6975C128.726 77.7667 127.746 77.6628 126.872 77.2819C126.522 78.3208 125.787 79.4291 124.668 79.533C123.653 79.6022 122.534 78.7711 122.429 77.178C122.254 75.0308 123.583 73.4377 124.458 73.3685C124.563 73.3685 124.703 73.4031 124.808 73.4724C124.878 73.0568 125.018 72.5373 125.402 72.5027C125.997 72.468 127.117 72.9875 127.256 74.6498C127.291 75.2732 127.187 75.9659 127.082 76.5546C127.641 76.7624 128.271 76.8317 128.901 76.797C130.51 76.6931 132.014 75.7581 133.029 74.8923C133.099 74.8576 133.134 74.823 133.204 74.7884C133.553 74.7537 133.973 75.1693 134.008 75.481C134.078 75.7234 131.839 77.5243 129.67 77.6975ZM125.892 76.5892C125.297 76.0005 124.948 75.2386 124.843 74.4074C123.863 74.9615 123.408 76.4507 123.478 77.5589C123.548 78.5633 123.863 78.5979 124.073 78.5979H124.178C124.808 78.5286 125.507 77.6975 125.892 76.5892ZM126.137 75.7234C126.242 75.2386 126.277 74.6845 126.242 74.2343C126.242 74.1304 126.137 73.4724 126.032 73.4724C125.892 73.4724 125.857 74.5459 125.857 74.7537C125.927 75.3425 126.102 75.6195 126.137 75.7234Z" fill="#C2A57A"/>
<path d="M135.163 82.1996C134.183 82.2689 133.029 81.4377 132.854 79.2905C132.434 73.7494 136.877 63.2905 137.332 63.2559C137.646 63.2213 138.101 63.6022 138.136 63.9139C138.136 63.9139 133.483 73.9918 133.938 79.6022C133.973 80.0871 134.113 81.2646 134.603 81.2299C135.967 81.126 139.64 76.3122 141.46 74.0957C141.495 74.0265 141.565 74.0265 141.635 73.9918C141.949 73.9572 142.404 74.3728 142.404 74.6845C142.404 74.7537 137.122 82.0611 135.163 82.1996Z" fill="#C2A57A"/>
<path d="M152.759 60.6931C150.73 66.9615 149.261 73.3685 149.541 79.9832C149.541 80.1563 149.436 80.2256 149.296 80.2602C148.946 80.2949 148.526 79.9139 148.526 79.5676C148.386 77.5589 148.526 73.8533 149.191 69.9745C148.176 72.2256 145.553 77.9399 143.139 78.113C142.089 78.1823 141.25 77.2819 141.18 76.1044C140.9 72.3988 146.322 70.4247 146.672 70.3901C146.952 70.3555 147.302 70.6672 147.442 70.9442C149.121 67.481 150.555 63.5676 151.815 59.8966C152.584 57.5762 152.549 57.5762 152.759 57.5762C153.074 57.5416 153.529 57.9572 153.564 58.2689C153.564 58.3728 152.934 60.1044 152.759 60.6931ZM147.197 71.3944C143.699 72.6412 142.054 74.7884 142.194 76.5546C142.229 76.8317 142.299 77.178 142.579 77.1433C144.293 77.0395 146.462 72.8836 147.197 71.3944Z" fill="#C2A57A"/>
<path d="M62.9985 9.39394L57.2613 0.805195C56.5267 -0.268398 54.9175 -0.268398 54.2178 0.805195L33.4728 32.0087C33.158 32.4589 33.0181 33.013 33.0181 33.5671V41.29C33.0181 41.6364 33.2979 41.9134 33.6478 41.9134H41.8688C42.8483 41.9134 43.7579 41.4286 44.2826 40.632L62.9636 12.5455C63.6282 11.5411 63.6282 10.329 62.9985 9.39394Z" fill="#C2A57A"/>
<path d="M64.8526 15.9742L49.635 38.8659C48.7604 40.1473 49.7049 41.8789 51.2792 41.8789H80.9448C82.5191 41.8789 83.4636 40.1473 82.589 38.8659L67.3714 15.9742C66.7767 15.0737 65.4473 15.0737 64.8526 15.9742Z" fill="#C2A57A"/>
<path d="M99.2059 41.2554V33.5325C99.2059 32.9784 99.031 32.4589 98.7511 31.974L78.0062 0.805195C77.2715 -0.268398 75.6623 -0.268398 74.9627 0.805195L69.2254 9.42857C68.5958 10.3636 68.5958 11.5758 69.2254 12.5455L87.9064 40.6667C88.4311 41.4632 89.3407 41.9481 90.3202 41.9481H98.5412C98.8911 41.8788 99.2059 41.6017 99.2059 41.2554Z" fill="#C2A57A"/>
<path d="M62.9985 9.39394L57.2613 0.805195C56.5267 -0.268398 54.9175 -0.268398 54.2178 0.805195L33.4728 32.0087C33.158 32.4589 33.0181 33.013 33.0181 33.5671V41.29C33.0181 41.6364 33.2979 41.9134 33.6478 41.9134H41.8688C42.8483 41.9134 43.7579 41.4286 44.2826 40.632L62.9636 12.5455C63.6282 11.5411 63.6282 10.329 62.9985 9.39394Z" fill="#C2A57A"/>
<path d="M64.8526 15.9742L49.635 38.8659C48.7604 40.1473 49.7049 41.8789 51.2792 41.8789H80.9448C82.5191 41.8789 83.4636 40.1473 82.589 38.8659L67.3714 15.9742C66.7767 15.0737 65.4473 15.0737 64.8526 15.9742Z" fill="#C2A57A"/>
<path d="M99.2059 41.2554V33.5325C99.2059 32.9784 99.031 32.4589 98.7511 31.974L78.0062 0.805195C77.2715 -0.268398 75.6623 -0.268398 74.9627 0.805195L69.2254 9.42857C68.5958 10.3636 68.5958 11.5758 69.2254 12.5455L87.9064 40.6667C88.4311 41.4632 89.3407 41.9481 90.3202 41.9481H98.5412C98.8911 41.8788 99.2059 41.6017 99.2059 41.2554Z" fill="#C2A57A"/>
<path d="M0.580078 67.162V47.7278H5.48786L12.8355 56.9452H13.5647L20.8843 47.7278H25.8201V67.162H21.333V54.1411H20.8843L15.023 61.6094H11.3772L5.5159 54.1411H5.03914V67.162H0.580078Z" fill="#C2A57A"/>
<path d="M30.9798 67.162V47.7278H42.6463C48.6759 47.7278 51.4523 49.9211 51.4523 54.3077C51.4523 58.7498 48.6759 60.9153 42.6463 60.9153H35.4389V67.162H30.9798ZM42.5902 51.337H35.4389V57.3061H42.5902C45.619 57.3061 46.9091 56.3344 46.9091 54.3077C46.9091 52.3087 45.619 51.337 42.5902 51.337Z" fill="#C2A57A"/>
<path d="M54.3695 57.4449C54.3695 51.4481 58.8286 47.4502 66.3445 47.4502C73.8604 47.4502 78.2915 51.4481 78.2915 57.4449C78.2915 63.4417 73.8604 67.4396 66.3445 67.4396C58.8286 67.4396 54.3695 63.4417 54.3695 57.4449ZM58.9127 57.4449C58.9127 61.3872 61.8294 63.8582 66.3445 63.8582C70.8316 63.8582 73.7483 61.3872 73.7483 57.4449C73.7483 53.5025 70.8316 51.0594 66.3445 51.0594C61.8294 51.0594 58.9127 53.5025 58.9127 57.4449Z" fill="#C2A57A"/>
<path d="M82.3307 67.162V47.7278H93.9972C100.027 47.7278 102.803 49.9211 102.803 54.3077C102.803 58.7498 100.027 60.9153 93.9972 60.9153H86.7898V67.162H82.3307ZM93.9411 51.337H86.7898V57.3061H93.9411C96.9699 57.3061 98.26 56.3344 98.26 54.3077C98.26 52.3087 96.9699 51.337 93.9411 51.337Z" fill="#C2A57A"/>
<path d="M105.72 57.4449C105.72 51.4481 110.18 47.4502 117.695 47.4502C125.211 47.4502 129.642 51.4481 129.642 57.4449C129.642 63.4417 125.211 67.4396 117.695 67.4396C110.18 67.4396 105.72 63.4417 105.72 57.4449ZM110.264 57.4449C110.264 61.3872 113.18 63.8582 117.695 63.8582C122.183 63.8582 125.099 61.3872 125.099 57.4449C125.099 53.5025 122.183 51.0594 117.695 51.0594C113.18 51.0594 110.264 53.5025 110.264 57.4449Z" fill="#C2A57A"/>
</svg>
