<svg width="129" height="80" viewBox="0 0 129 80" fill="none" xmlns="http://www.w3.org/2000/svg">
<g clip-path="url(#clip0_121_307)">
<path d="M102.962 64.6828C102.262 65.1734 101.592 65.6929 100.95 66.2412C100.979 69.387 99.7841 77.208 96.6648 77.4389C95.3237 77.5255 94.8281 76.0248 94.7407 74.9281C94.4783 71.4938 97.481 67.944 100.076 65.664L100.046 65.26C99.9882 64.5385 99.7841 62.778 99.0844 62.8358C97.7434 62.9223 94.6824 68.4923 92.4959 68.6366C91.7088 68.6943 91.0675 68.0594 91.0092 67.0782C90.8634 65.2311 92.4668 62.4317 95.0322 62.2586C95.8193 62.2008 96.6065 62.4028 97.2187 62.9223C97.6559 62.5183 98.1515 62.0565 98.7054 62.0277C100.046 61.9411 100.717 63.5861 100.892 65.0003C101.329 64.6539 103.574 62.9512 103.924 62.9223C104.186 62.8935 104.536 63.2398 104.565 63.4995C104.565 63.7593 104.39 63.6438 102.962 64.6828ZM96.7522 63.3841C96.4315 63.0955 95.9651 63.0666 95.4987 63.0955C93.1373 63.2686 91.738 65.8661 91.8546 67.5111C91.8837 67.8574 91.942 67.8863 92.0295 67.8863H92.0878C93.3122 67.7708 95.7319 64.4519 96.7522 63.3841ZM100.076 67.0493C97.8892 69.0984 95.382 72.3018 95.6153 75.3033C95.6444 75.765 95.761 76.6597 96.1983 76.6308C98.2681 76.4577 99.8715 71.1186 100.076 67.0493Z" fill="#AC9A80"/>
<path d="M109.725 64.7694C108.938 64.8271 108.122 64.7405 107.393 64.423C107.101 65.2889 106.489 66.2124 105.556 66.299C104.711 66.3567 103.778 65.664 103.691 64.3365C103.545 62.5471 104.653 61.2196 105.381 61.1619C105.469 61.1619 105.585 61.1907 105.673 61.2484C105.731 60.9021 105.848 60.4692 106.168 60.4404C106.664 60.4115 107.597 60.8444 107.714 62.2297C107.743 62.7492 107.655 63.3264 107.568 63.817C108.034 63.9901 108.559 64.0479 109.084 64.019C110.425 63.9324 111.678 63.1532 112.524 62.4317C112.582 62.4028 112.611 62.374 112.669 62.3451C112.961 62.3163 113.311 62.6626 113.34 62.9223C113.398 63.1243 111.533 64.6251 109.725 64.7694ZM106.577 63.8458C106.081 63.3552 105.79 62.7203 105.702 62.0277C104.886 62.4894 104.507 63.7304 104.565 64.6539C104.623 65.4909 104.886 65.5197 105.061 65.5197H105.148C105.673 65.462 106.256 64.7694 106.577 63.8458ZM106.781 63.1243C106.868 62.7203 106.897 62.2585 106.868 61.8834C106.868 61.7968 106.781 61.2484 106.693 61.2484C106.577 61.2484 106.547 62.1431 106.547 62.3163C106.606 62.8069 106.752 63.0378 106.781 63.1243Z" fill="#AC9A80"/>
<path d="M114.302 68.5212C113.486 68.5789 112.524 67.8863 112.378 66.0969C112.028 61.4793 115.731 52.7636 116.11 52.7347C116.372 52.7059 116.751 53.0233 116.78 53.2831C116.78 53.2831 112.903 61.6813 113.282 66.3567C113.311 66.7607 113.427 67.742 113.836 67.7131C114.973 67.6265 118.034 63.615 119.549 61.7679C119.579 61.7102 119.637 61.7102 119.695 61.6813C119.958 61.6525 120.337 61.9988 120.337 62.2586C120.337 62.3163 115.935 68.4057 114.302 68.5212Z" fill="#AC9A80"/>
<path d="M128.966 50.5991C127.275 55.8228 126.051 61.1619 126.284 66.6741C126.284 66.8184 126.196 66.8762 126.08 66.905C125.788 66.9339 125.438 66.6164 125.438 66.3278C125.322 64.6539 125.438 61.5659 125.992 58.3336C125.147 60.2095 122.96 64.9714 120.949 65.1157C120.074 65.1734 119.375 64.423 119.316 63.4418C119.083 60.3538 123.602 58.7088 123.893 58.6799C124.126 58.651 124.418 58.9108 124.535 59.1417C125.934 56.2557 127.129 52.9945 128.179 49.9353C128.82 48.0017 128.791 48.0017 128.966 48.0017C129.228 47.9728 129.607 48.3192 129.636 48.5789C129.636 48.6655 129.112 50.1085 128.966 50.5991ZM124.331 59.5168C121.415 60.5558 120.045 62.3451 120.162 63.817C120.191 64.0479 120.249 64.3365 120.482 64.3076C121.911 64.221 123.718 60.7578 124.331 59.5168Z" fill="#AC9A80"/>
<path d="M54.1654 7.85001L49.3844 0.692724C48.7721 -0.201937 47.4311 -0.201937 46.8481 0.692724L29.5606 26.6956C29.2983 27.0708 29.1816 27.5325 29.1816 27.9943V34.4301C29.1816 34.7187 29.4149 34.9496 29.7064 34.9496H36.5572C37.3735 34.9496 38.1315 34.5455 38.5688 33.8818L54.1362 10.4763C54.6901 9.63933 54.6901 8.62923 54.1654 7.85001Z" fill="#AC9A80"/>
<path d="M55.7105 13.3335L43.0291 32.41C42.3003 33.4778 43.0874 34.9208 44.3993 34.9208H69.1206C70.4325 34.9208 71.2196 33.4778 70.4908 32.41L57.8094 13.3335C57.3139 12.5832 56.2061 12.5832 55.7105 13.3335Z" fill="#AC9A80"/>
<path d="M84.3382 34.4012V27.9655C84.3382 27.5037 84.1925 27.0708 83.9592 26.6668L66.6718 0.692724C66.0596 -0.201937 64.7186 -0.201937 64.1355 0.692724L59.3545 7.87887C58.8298 8.65809 58.8298 9.66819 59.3545 10.4763L74.922 33.9106C75.3592 34.5744 76.1172 34.9784 76.9335 34.9784H83.7843C84.0758 34.9207 84.3382 34.6898 84.3382 34.4012Z" fill="#AC9A80"/>
<path d="M54.1654 7.85001L49.3844 0.692724C48.7721 -0.201937 47.4311 -0.201937 46.8481 0.692724L29.5606 26.6956C29.2983 27.0708 29.1816 27.5325 29.1816 27.9943V34.4301C29.1816 34.7187 29.4149 34.9496 29.7064 34.9496H36.5572C37.3735 34.9496 38.1315 34.5455 38.5688 33.8818L54.1362 10.4763C54.6901 9.63933 54.6901 8.62923 54.1654 7.85001Z" fill="#AC9A80"/>
<path d="M55.7105 13.3335L43.0291 32.41C42.3003 33.4778 43.0874 34.9208 44.3993 34.9208H69.1206C70.4325 34.9208 71.2196 33.4778 70.4908 32.41L57.8094 13.3335C57.3139 12.5832 56.2061 12.5832 55.7105 13.3335Z" fill="#AC9A80"/>
<path d="M84.3382 34.4012V27.9655C84.3382 27.5037 84.1925 27.0708 83.9592 26.6668L66.6718 0.692724C66.0596 -0.201937 64.7186 -0.201937 64.1355 0.692724L59.3545 7.87887C58.8298 8.65809 58.8298 9.66819 59.3545 10.4763L74.922 33.9106C75.3592 34.5744 76.1172 34.9784 76.9335 34.9784H83.7843C84.0758 34.9207 84.3382 34.6898 84.3382 34.4012Z" fill="#AC9A80"/>
<path d="M2.15002 55.9902V39.7951H6.23984L12.3629 47.4762H12.9705L19.0702 39.7951H23.1834V55.9902H19.4441V45.1395H19.0702L14.1858 51.363H11.1476L6.26321 45.1395H5.86591V55.9902H2.15002Z" fill="#AC9A80"/>
<path d="M27.4831 55.9902V39.7951H37.2052C42.2298 39.7951 44.5435 41.6228 44.5435 45.2783C44.5435 48.98 42.2298 50.7846 37.2052 50.7846H31.199V55.9902H27.4831ZM37.1585 42.8027H31.199V47.777H37.1585C39.6825 47.777 40.7575 46.9672 40.7575 45.2783C40.7575 43.6125 39.6825 42.8027 37.1585 42.8027Z" fill="#AC9A80"/>
<path d="M46.9746 47.8926C46.9746 42.8953 50.6905 39.5637 56.9537 39.5637C63.217 39.5637 66.9095 42.8953 66.9095 47.8926C66.9095 52.89 63.217 56.2216 56.9537 56.2216C50.6905 56.2216 46.9746 52.89 46.9746 47.8926ZM50.7606 47.8926C50.7606 51.1779 53.1911 53.237 56.9537 53.237C60.693 53.237 63.1235 51.1779 63.1235 47.8926C63.1235 44.6073 60.693 42.5714 56.9537 42.5714C53.1911 42.5714 50.7606 44.6073 50.7606 47.8926Z" fill="#AC9A80"/>
<path d="M70.2756 55.9902V39.7951H79.9976C85.0223 39.7951 87.3359 41.6228 87.3359 45.2783C87.3359 48.98 85.0223 50.7846 79.9976 50.7846H73.9915V55.9902H70.2756ZM79.9509 42.8027H73.9915V47.777H79.9509C82.4749 47.777 83.5499 46.9672 83.5499 45.2783C83.5499 43.6125 82.4749 42.8027 79.9509 42.8027Z" fill="#AC9A80"/>
<path d="M89.767 47.8926C89.767 42.8953 93.4829 39.5637 99.7461 39.5637C106.009 39.5637 109.702 42.8953 109.702 47.8926C109.702 52.89 106.009 56.2216 99.7461 56.2216C93.4829 56.2216 89.767 52.89 89.767 47.8926ZM93.553 47.8926C93.553 51.1779 95.9835 53.237 99.7461 53.237C103.485 53.237 105.916 51.1779 105.916 47.8926C105.916 44.6073 103.485 42.5714 99.7461 42.5714C95.9835 42.5714 93.553 44.6073 93.553 47.8926Z" fill="#AC9A80"/>
</g>
<defs>
<clipPath id="clip0_121_307">
<rect width="129" height="80" fill="white"/>
</clipPath>
</defs>
</svg>
