<svg width="153" height="93" viewBox="0 0 153 93" fill="none" xmlns="http://www.w3.org/2000/svg">
<path d="M120.974 77.5936C120.135 78.1823 119.33 78.8057 118.56 79.4637C118.595 83.2386 117.161 92.6239 113.418 92.9009C111.809 93.0048 111.214 91.204 111.109 89.8879C110.794 85.7667 114.397 81.507 117.511 78.7711L117.476 78.2862C117.406 77.4204 117.161 75.3079 116.321 75.3771C114.712 75.481 111.039 82.165 108.415 82.3382C107.471 82.4074 106.701 81.6455 106.631 80.468C106.456 78.2516 108.38 74.8923 111.459 74.6845C112.403 74.6152 113.348 74.8576 114.083 75.481C114.607 74.9962 115.202 74.4421 115.867 74.4074C117.476 74.3035 118.28 76.2776 118.49 77.9745C119.015 77.5589 121.709 75.5156 122.129 75.481C122.443 75.4464 122.863 75.862 122.898 76.1737C122.898 76.4853 122.688 76.3468 120.974 77.5936ZM113.523 76.0351C113.138 75.6888 112.578 75.6542 112.019 75.6888C109.185 75.8966 107.506 79.0135 107.646 80.9875C107.681 81.4031 107.751 81.4377 107.856 81.4377H107.925C109.395 81.2992 112.298 77.3165 113.523 76.0351ZM117.511 80.4334C114.887 82.8923 111.879 86.7364 112.158 90.3382C112.193 90.8923 112.333 91.9659 112.858 91.9312C115.342 91.7234 117.266 85.3165 117.511 80.4334Z" fill="#AC9A80"/>
<path d="M129.09 77.6975C128.146 77.7667 127.166 77.6628 126.292 77.2819C125.942 78.3208 125.207 79.4291 124.088 79.533C123.073 79.6022 121.954 78.7711 121.849 77.178C121.674 75.0308 123.003 73.4377 123.878 73.3685C123.983 73.3685 124.123 73.4031 124.228 73.4724C124.298 73.0568 124.437 72.5373 124.822 72.5027C125.417 72.468 126.536 72.9875 126.676 74.6498C126.711 75.2732 126.606 75.9659 126.501 76.5546C127.061 76.7624 127.691 76.8317 128.321 76.797C129.93 76.6931 131.434 75.7581 132.449 74.8923C132.519 74.8576 132.554 74.823 132.624 74.7884C132.973 74.7537 133.393 75.1693 133.428 75.481C133.498 75.7234 131.259 77.5243 129.09 77.6975ZM125.312 76.5892C124.717 76.0005 124.368 75.2386 124.263 74.4074C123.283 74.9615 122.828 76.4507 122.898 77.5589C122.968 78.5633 123.283 78.5979 123.493 78.5979H123.598C124.228 78.5286 124.927 77.6975 125.312 76.5892ZM125.557 75.7234C125.662 75.2386 125.697 74.6845 125.662 74.2343C125.662 74.1304 125.557 73.4724 125.452 73.4724C125.312 73.4724 125.277 74.5459 125.277 74.7537C125.347 75.3425 125.522 75.6195 125.557 75.7234Z" fill="#AC9A80"/>
<path d="M134.583 82.1996C133.603 82.2689 132.449 81.4377 132.274 79.2905C131.854 73.7494 136.297 63.2905 136.752 63.2559C137.066 63.2213 137.521 63.6022 137.556 63.9139C137.556 63.9139 132.903 73.9918 133.358 79.6022C133.393 80.0871 133.533 81.2646 134.023 81.2299C135.387 81.126 139.06 76.3122 140.88 74.0957C140.914 74.0265 140.984 74.0265 141.054 73.9918C141.369 73.9572 141.824 74.3728 141.824 74.6845C141.824 74.7537 136.542 82.0611 134.583 82.1996Z" fill="#AC9A80"/>
<path d="M152.179 60.6931C150.15 66.9615 148.681 73.3685 148.961 79.9832C148.961 80.1563 148.856 80.2256 148.716 80.2602C148.366 80.2949 147.946 79.9139 147.946 79.5676C147.806 77.5589 147.946 73.8533 148.611 69.9745C147.596 72.2256 144.973 77.9399 142.559 78.113C141.509 78.1823 140.67 77.2819 140.6 76.1044C140.32 72.3988 145.742 70.4247 146.092 70.3901C146.372 70.3555 146.722 70.6672 146.862 70.9442C148.541 67.481 149.975 63.5676 151.235 59.8966C152.004 57.5762 151.969 57.5762 152.179 57.5762C152.494 57.5416 152.949 57.9572 152.984 58.2689C152.984 58.3728 152.354 60.1044 152.179 60.6931ZM146.617 71.3944C143.118 72.6412 141.474 74.7884 141.614 76.5546C141.649 76.8317 141.719 77.178 141.999 77.1433C143.713 77.0395 145.882 72.8836 146.617 71.3944Z" fill="#AC9A80"/>
<path d="M62.4185 9.39394L56.6812 0.805195C55.9466 -0.268398 54.3374 -0.268398 53.6377 0.805195L32.8928 32.0087C32.5779 32.4589 32.438 33.013 32.438 33.5671V41.29C32.438 41.6364 32.7179 41.9134 33.0677 41.9134H41.2887C42.2682 41.9134 43.1778 41.4286 43.7025 40.632L62.3835 12.5455C63.0482 11.5411 63.0482 10.329 62.4185 9.39394Z" fill="#AC9A80"/>
<path d="M64.2725 15.9742L49.0549 38.8659C48.1803 40.1473 49.1249 41.8789 50.6991 41.8789H80.3647C81.939 41.8789 82.8835 40.1473 82.0089 38.8659L66.7913 15.9742C66.1966 15.0737 64.8672 15.0737 64.2725 15.9742Z" fill="#AC9A80"/>
<path d="M98.626 41.2554V33.5325C98.626 32.9784 98.451 32.4589 98.1712 31.974L77.4262 0.805195C76.6916 -0.268398 75.0824 -0.268398 74.3827 0.805195L68.6455 9.42857C68.0158 10.3636 68.0158 11.5758 68.6455 12.5455L87.3264 40.6667C87.8512 41.4632 88.7607 41.9481 89.7403 41.9481H97.9613C98.3111 41.8788 98.626 41.6017 98.626 41.2554Z" fill="#AC9A80"/>
<path d="M62.4185 9.39394L56.6812 0.805195C55.9466 -0.268398 54.3374 -0.268398 53.6377 0.805195L32.8928 32.0087C32.5779 32.4589 32.438 33.013 32.438 33.5671V41.29C32.438 41.6364 32.7179 41.9134 33.0677 41.9134H41.2887C42.2682 41.9134 43.1778 41.4286 43.7025 40.632L62.3835 12.5455C63.0482 11.5411 63.0482 10.329 62.4185 9.39394Z" fill="#AC9A80"/>
<path d="M64.2725 15.9742L49.0549 38.8659C48.1803 40.1473 49.1249 41.8789 50.6991 41.8789H80.3647C81.939 41.8789 82.8835 40.1473 82.0089 38.8659L66.7913 15.9742C66.1966 15.0737 64.8672 15.0737 64.2725 15.9742Z" fill="#AC9A80"/>
<path d="M98.626 41.2554V33.5325C98.626 32.9784 98.451 32.4589 98.1712 31.974L77.4262 0.805195C76.6916 -0.268398 75.0824 -0.268398 74.3827 0.805195L68.6455 9.42857C68.0158 10.3636 68.0158 11.5758 68.6455 12.5455L87.3264 40.6667C87.8512 41.4632 88.7607 41.9481 89.7403 41.9481H97.9613C98.3111 41.8788 98.626 41.6017 98.626 41.2554Z" fill="#AC9A80"/>
<path d="M0 67.162V47.7278H4.90778L12.2554 56.9452H12.9846L20.3042 47.7278H25.24V67.162H20.7529V54.1411H20.3042L14.4429 61.6094H10.7971L4.93582 54.1411H4.45907V67.162H0Z" fill="#AC9A80"/>
<path d="M30.3997 67.162V47.7278H42.0662C48.0958 47.7278 50.8722 49.9211 50.8722 54.3077C50.8722 58.7498 48.0958 60.9153 42.0662 60.9153H34.8588V67.162H30.3997ZM42.0101 51.337H34.8588V57.3061H42.0101C45.0389 57.3061 46.329 56.3344 46.329 54.3077C46.329 52.3087 45.0389 51.337 42.0101 51.337Z" fill="#AC9A80"/>
<path d="M53.7895 57.4449C53.7895 51.4481 58.2485 47.4502 65.7644 47.4502C73.2804 47.4502 77.7114 51.4481 77.7114 57.4449C77.7114 63.4417 73.2804 67.4396 65.7644 67.4396C58.2485 67.4396 53.7895 63.4417 53.7895 57.4449ZM58.3327 57.4449C58.3327 61.3872 61.2493 63.8582 65.7644 63.8582C70.2516 63.8582 73.1682 61.3872 73.1682 57.4449C73.1682 53.5025 70.2516 51.0594 65.7644 51.0594C61.2493 51.0594 58.3327 53.5025 58.3327 57.4449Z" fill="#AC9A80"/>
<path d="M81.7506 67.162V47.7278H93.4171C99.4467 47.7278 102.223 49.9211 102.223 54.3077C102.223 58.7498 99.4467 60.9153 93.4171 60.9153H86.2097V67.162H81.7506ZM93.361 51.337H86.2097V57.3061H93.361C96.3898 57.3061 97.6799 56.3344 97.6799 54.3077C97.6799 52.3087 96.3898 51.337 93.361 51.337Z" fill="#AC9A80"/>
<path d="M105.14 57.4449C105.14 51.4481 109.599 47.4502 117.115 47.4502C124.631 47.4502 129.062 51.4481 129.062 57.4449C129.062 63.4417 124.631 67.4396 117.115 67.4396C109.599 67.4396 105.14 63.4417 105.14 57.4449ZM109.684 57.4449C109.684 61.3872 112.6 63.8582 117.115 63.8582C121.602 63.8582 124.519 61.3872 124.519 57.4449C124.519 53.5025 121.602 51.0594 117.115 51.0594C112.6 51.0594 109.684 53.5025 109.684 57.4449Z" fill="#AC9A80"/>
</svg>
