<svg width="451" height="421" viewBox="0 0 451 421" fill="none" xmlns="http://www.w3.org/2000/svg">
<g clip-path="url(#clip0_539_87)">
<rect width="451" height="158.034" rx="12.6007" fill="#D8CAB0" fill-opacity="0.6"/>
<rect y="188" width="451" height="233" rx="12.6007" fill="#D8CAB0" fill-opacity="0.6"/>
<rect x="88.73" y="18.9009" width="273.386" height="31.7643" rx="5.42322" fill="#C38223"/>
<path d="M116.917 37.9003C118.273 37.9003 119.927 37.724 120.957 37.4393V39.012C120.008 39.2561 118.802 39.4188 116.999 39.4188C113.433 39.4188 111.182 37.5749 111.182 34.5379C111.182 31.5009 113.433 29.657 116.999 29.657C118.802 29.657 120.008 29.8197 120.957 30.0637V31.6365C119.927 31.3517 118.273 31.1755 116.917 31.1755C114.544 31.1755 113.053 32.4093 113.053 34.5379C113.053 36.6665 114.544 37.9003 116.917 37.9003ZM122.208 35.4598C122.208 33.0872 124.025 31.5009 126.94 31.5009C129.868 31.5009 131.672 33.0872 131.672 35.4598C131.672 37.8325 129.868 39.4188 126.94 39.4188C124.025 39.4188 122.208 37.8325 122.208 35.4598ZM124.052 35.4598C124.052 36.9648 125.218 37.9274 126.94 37.9274C128.675 37.9274 129.828 36.9648 129.828 35.4598C129.828 33.9549 128.675 33.0058 126.94 33.0058C125.218 33.0058 124.052 33.9549 124.052 35.4598ZM135.089 31.6365L135.17 32.1923C136.255 31.772 137.57 31.5009 138.546 31.5009C140.539 31.5009 141.949 32.5855 141.949 34.0091V39.2832H140.159V34.5108C140.159 33.5753 139.387 33.0058 138.126 33.0058C137.339 33.0058 136.228 33.2363 135.224 33.6431V39.2832H133.435V31.6365H135.089ZM150.206 37.0732C150.206 36.3953 149.637 36.1784 147.779 36.1106C145.881 36.0699 143.753 35.9615 143.753 33.8464C143.753 32.2601 145.068 31.528 147.82 31.5009C149.108 31.4873 150.288 31.6365 151.467 31.8805V33.3719C150.071 33.0872 148.688 32.9109 147.495 32.938C146.125 32.9923 145.542 33.2905 145.542 33.8329C145.542 34.4972 146.112 34.687 148.295 34.7684C149.976 34.7955 151.969 34.9582 151.969 36.9512C151.969 38.6189 150.599 39.4323 147.63 39.4052C146.112 39.3917 144.607 39.1612 143.753 38.9985V37.4664C144.403 37.5749 146.085 37.941 147.874 37.9545C149.433 37.9681 150.206 37.6969 150.206 37.0732ZM157.946 31.5009C160.454 31.5009 162.068 32.7889 162.068 34.8497C162.068 35.3514 162 35.7852 161.932 36.0293H155.248C155.519 37.2224 156.644 37.9545 158.407 37.9545C159.288 37.9545 160.725 37.8189 161.634 37.602V39.0663C160.875 39.2425 159.709 39.4323 158.502 39.4323C155.248 39.4188 153.323 37.8596 153.323 35.4598C153.323 33.1143 155.167 31.5009 157.946 31.5009ZM155.234 34.8497H160.332C160.332 33.7244 159.343 32.9787 157.878 32.9787C156.441 32.9787 155.478 33.6973 155.234 34.8497ZM163.834 39.2832V29.2502H165.624V39.2832H163.834ZM169.689 29.2502V32.1788C170.76 31.7585 172.048 31.5009 173.011 31.5009C175.004 31.5009 176.414 32.5855 176.414 34.0091V39.2832H174.624V34.5108C174.624 33.5753 173.851 33.0058 172.59 33.0058C171.804 33.0058 170.692 33.2363 169.689 33.6431V39.2832H167.899V29.2502H169.689ZM178.122 35.4598C178.122 33.0872 179.939 31.5009 182.854 31.5009C185.782 31.5009 187.585 33.0872 187.585 35.4598C187.585 37.8325 185.782 39.4188 182.854 39.4188C179.939 39.4188 178.122 37.8325 178.122 35.4598ZM179.966 35.4598C179.966 36.9648 181.132 37.9274 182.854 37.9274C184.589 37.9274 185.741 36.9648 185.741 35.4598C185.741 33.9549 184.589 33.0058 182.854 33.0058C181.132 33.0058 179.966 33.9549 179.966 35.4598ZM201.751 39.2832H200.259L200.11 38.7544C199.392 39.0527 198.239 39.4188 196.911 39.4188C194.118 39.4188 192.355 37.846 192.355 35.4598C192.355 33.0736 194.118 31.5009 196.911 31.5009C198.158 31.5009 199.243 31.8127 199.961 32.0974V29.2502H201.751V39.2832ZM197.222 37.9274C198.348 37.9274 199.405 37.6698 199.961 37.4122V33.5075C199.392 33.2499 198.321 32.9923 197.209 32.9923C195.284 32.9923 194.185 33.9549 194.185 35.4598C194.185 36.9648 195.284 37.9274 197.222 37.9274ZM208.14 31.5009C210.648 31.5009 212.262 32.7889 212.262 34.8497C212.262 35.3514 212.194 35.7852 212.126 36.0293H205.442C205.713 37.2224 206.838 37.9545 208.601 37.9545C209.482 37.9545 210.919 37.8189 211.828 37.602V39.0663C211.069 39.2425 209.903 39.4323 208.696 39.4323C205.442 39.4188 203.517 37.8596 203.517 35.4598C203.517 33.1143 205.361 31.5009 208.14 31.5009ZM205.428 34.8497H210.526C210.526 33.7244 209.536 32.9787 208.072 32.9787C206.635 32.9787 205.672 33.6973 205.428 34.8497ZM216.737 39.2832L220.818 29.7926H224.221L228.302 39.2832H226.336L225.441 37.1681H219.597L218.703 39.2832H216.737ZM220.18 35.731H224.858L223.028 31.3789H221.997L220.18 35.731ZM238.387 39.2832H236.895L236.746 38.7544C236.028 39.0527 234.875 39.4188 233.546 39.4188C230.754 39.4188 228.991 37.846 228.991 35.4598C228.991 33.0736 230.754 31.5009 233.546 31.5009C234.794 31.5009 235.878 31.8127 236.597 32.0974V29.2502H238.387V39.2832ZM233.858 37.9274C234.984 37.9274 236.041 37.6698 236.597 37.4122V33.5075C236.028 33.2499 234.957 32.9923 233.845 32.9923C231.92 32.9923 230.821 33.9549 230.821 35.4598C230.821 36.9648 231.92 37.9274 233.858 37.9274ZM242.322 31.6365L242.39 32.1652C243.352 31.7449 244.464 31.5009 245.291 31.5009C246.254 31.5009 247.067 31.8534 247.582 32.4228C248.64 31.8669 250.036 31.5009 251.026 31.5009C252.721 31.5009 253.928 32.5855 253.928 34.0091V39.2832H252.138V34.5108C252.138 33.5753 251.528 33.0058 250.524 33.0058C249.901 33.0058 248.979 33.2363 248.125 33.6295C248.165 33.7922 248.192 33.9549 248.192 34.1311V39.2832H246.403V34.5108C246.403 33.5753 245.793 33.0058 244.789 33.0058C244.179 33.0058 243.298 33.2228 242.457 33.6024V39.2832H240.668V31.6365H242.322ZM255.888 29.4265C255.888 28.735 256.349 28.4232 257.041 28.4232C257.719 28.4232 258.166 28.735 258.166 29.4265C258.166 30.118 257.719 30.4569 257.041 30.4569C256.349 30.4569 255.888 30.118 255.888 29.4265ZM256.132 39.2832V31.6365H257.922V39.2832H256.132ZM261.851 31.6365L261.933 32.1923C263.017 31.772 264.332 31.5009 265.309 31.5009C267.302 31.5009 268.712 32.5855 268.712 34.0091V39.2832H266.922V34.5108C266.922 33.5753 266.149 33.0058 264.888 33.0058C264.102 33.0058 262.99 33.2363 261.987 33.6431V39.2832H260.197V31.6365H261.851ZM270.678 29.4265C270.678 28.735 271.139 28.4232 271.83 28.4232C272.508 28.4232 272.956 28.735 272.956 29.4265C272.956 30.118 272.508 30.4569 271.83 30.4569C271.139 30.4569 270.678 30.118 270.678 29.4265ZM270.922 39.2832V31.6365H272.711V39.2832H270.922ZM281.033 37.0732C281.033 36.3953 280.464 36.1784 278.607 36.1106C276.708 36.0699 274.58 35.9615 274.58 33.8464C274.58 32.2601 275.895 31.528 278.647 31.5009C279.935 31.4873 281.115 31.6365 282.294 31.8805V33.3719C280.898 33.0872 279.515 32.9109 278.322 32.938C276.952 32.9923 276.369 33.2905 276.369 33.8329C276.369 34.4972 276.939 34.687 279.122 34.7684C280.803 34.7955 282.796 34.9582 282.796 36.9512C282.796 38.6189 281.427 39.4323 278.457 39.4052C276.939 39.3917 275.434 39.1612 274.58 38.9985V37.4664C275.231 37.5749 276.912 37.941 278.701 37.9545C280.261 37.9681 281.033 37.6969 281.033 37.0732ZM285.669 29.779L287.458 29.2774V31.6365H291.498V32.938H287.458V36.3547C287.458 37.4122 288.095 37.8867 289.533 37.8867C290.088 37.8867 291.037 37.8054 291.756 37.5613V39.012C291.065 39.3239 289.953 39.4188 289.289 39.4188C287.079 39.4188 285.669 38.3477 285.669 36.7207V32.938H283.757V31.6365H285.669V29.779ZM293.377 31.6365H294.977L295.153 32.7618C296.035 32.0025 297.241 31.5009 298.462 31.5009C298.977 31.5009 299.519 31.5687 299.722 31.6229V33.1956C299.411 33.1278 299.058 33.1007 298.733 33.1007C297.363 33.1143 295.926 33.6159 295.167 34.5108V39.2832H293.377V31.6365ZM300.568 36.9648C300.568 35.4327 301.87 34.6463 304.418 34.6463C305.232 34.6463 306.547 34.7006 307.239 34.7955C307.239 34.687 307.239 34.5786 307.239 34.4565C307.211 33.399 306.547 32.9787 304.961 32.9787C303.741 32.9787 302.344 33.1143 301.368 33.3312V31.8669C302.181 31.6907 303.605 31.5009 304.947 31.5009C307.754 31.5009 309.042 32.3822 309.042 34.3345V39.2832H307.415L307.293 38.2663C306.588 39.012 305.476 39.4323 303.985 39.4323C301.788 39.4323 300.568 38.5511 300.568 36.9648ZM307.252 36.6258V35.9208C306.506 35.9072 305.205 35.9072 304.486 35.9072C303.103 35.9072 302.398 36.2869 302.398 37.019C302.398 37.724 303.063 38.0765 304.418 38.0765C305.598 38.0765 306.967 37.5613 307.252 36.6258ZM315.808 39.4323L315.619 39.7577C316.161 40.0153 316.514 40.5305 316.514 41.0864C316.514 42.1304 315.537 42.7134 313.734 42.5643V41.5203C314.48 41.6287 314.981 41.3305 315.009 40.761C315.022 40.4221 314.642 39.9747 314.127 39.7577L314.385 39.3103C312.026 38.9036 310.684 37.48 310.684 35.4598C310.684 33.0601 312.595 31.5009 315.89 31.5009C317.042 31.5009 317.978 31.6907 318.723 31.8669V33.3583C317.842 33.1414 316.608 33.0058 315.808 33.0058C313.721 33.0058 312.527 33.9549 312.527 35.4598C312.527 36.9648 313.721 37.9274 315.808 37.9274C316.608 37.9274 317.842 37.7918 318.723 37.5749V39.0663C317.815 39.2832 316.839 39.4323 315.808 39.4323ZM324.263 30.1586C323.965 29.9688 323.639 29.7655 323.246 29.7655C322.894 29.7655 322.487 29.9417 322.039 30.4434V29.0198C322.527 28.4774 322.934 28.2876 323.314 28.2876C323.829 28.2876 324.249 28.6266 324.67 28.8571C324.873 28.9791 325.144 29.074 325.429 29.074C325.822 29.074 326.283 28.9113 326.771 28.4368V29.8604C326.229 30.3756 325.754 30.5518 325.348 30.5518C324.914 30.5518 324.561 30.3484 324.263 30.1586ZM319.965 36.9648C319.965 35.4327 321.267 34.6463 323.815 34.6463C324.629 34.6463 325.944 34.7006 326.636 34.7955C326.636 34.687 326.636 34.5786 326.636 34.4565C326.608 33.399 325.944 32.9787 324.358 32.9787C323.138 32.9787 321.741 33.1143 320.765 33.3312V31.8669C321.578 31.6907 323.002 31.5009 324.344 31.5009C327.151 31.5009 328.439 32.3822 328.439 34.3345V39.2832H326.812L326.69 38.2663C325.985 39.012 324.873 39.4323 323.382 39.4323C321.185 39.4323 319.965 38.5511 319.965 36.9648ZM326.649 36.6258V35.9208C325.903 35.9072 324.602 35.9072 323.883 35.9072C322.5 35.9072 321.795 36.2869 321.795 37.019C321.795 37.724 322.46 38.0765 323.815 38.0765C324.995 38.0765 326.364 37.5613 326.649 36.6258ZM330.081 35.4598C330.081 33.0872 331.897 31.5009 334.812 31.5009C337.741 31.5009 339.544 33.0872 339.544 35.4598C339.544 37.8325 337.741 39.4188 334.812 39.4188C331.897 39.4188 330.081 37.8325 330.081 35.4598ZM331.924 35.4598C331.924 36.9648 333.09 37.9274 334.812 37.9274C336.548 37.9274 337.7 36.9648 337.7 35.4598C337.7 33.9549 336.548 33.0058 334.812 33.0058C333.09 33.0058 331.924 33.9549 331.924 35.4598Z" fill="white"/>
<rect x="119.181" y="207.478" width="212.386" height="31.2697" rx="5.42322" fill="#C38223"/>
<path d="M147.368 226.229C148.724 226.229 150.378 226.053 151.409 225.768V227.341C150.46 227.585 149.253 227.748 147.45 227.748C143.884 227.748 141.633 225.904 141.633 222.867C141.633 219.83 143.884 217.986 147.45 217.986C149.253 217.986 150.46 218.149 151.409 218.393V219.966C150.378 219.681 148.724 219.505 147.368 219.505C144.996 219.505 143.504 220.738 143.504 222.867C143.504 224.996 144.996 226.229 147.368 226.229ZM152.659 223.789C152.659 221.416 154.476 219.83 157.391 219.83C160.32 219.83 162.123 221.416 162.123 223.789C162.123 226.162 160.32 227.748 157.391 227.748C154.476 227.748 152.659 226.162 152.659 223.789ZM154.503 223.789C154.503 225.294 155.669 226.256 157.391 226.256C159.126 226.256 160.279 225.294 160.279 223.789C160.279 222.284 159.126 221.335 157.391 221.335C155.669 221.335 154.503 222.284 154.503 223.789ZM165.54 219.966L165.608 220.494C166.57 220.074 167.682 219.83 168.509 219.83C169.472 219.83 170.285 220.182 170.8 220.752C171.858 220.196 173.254 219.83 174.244 219.83C175.939 219.83 177.146 220.915 177.146 222.338V227.612H175.356V222.84C175.356 221.904 174.746 221.335 173.743 221.335C173.119 221.335 172.197 221.565 171.343 221.959C171.383 222.121 171.411 222.284 171.411 222.46V227.612H169.621V222.84C169.621 221.904 169.011 221.335 168.007 221.335C167.397 221.335 166.516 221.552 165.676 221.931V227.612H163.886V219.966H165.54ZM179.106 217.756C179.106 217.064 179.567 216.752 180.259 216.752C180.937 216.752 181.384 217.064 181.384 217.756C181.384 218.447 180.937 218.786 180.259 218.786C179.567 218.786 179.106 218.447 179.106 217.756ZM179.351 227.612V219.966H181.14V227.612H179.351ZM189.462 225.402C189.462 224.724 188.893 224.508 187.035 224.44C185.137 224.399 183.009 224.291 183.009 222.176C183.009 220.589 184.324 219.857 187.076 219.83C188.364 219.816 189.544 219.966 190.723 220.21V221.701C189.327 221.416 187.944 221.24 186.751 221.267C185.381 221.321 184.798 221.62 184.798 222.162C184.798 222.826 185.368 223.016 187.55 223.097C189.232 223.125 191.225 223.287 191.225 225.28C191.225 226.948 189.855 227.761 186.886 227.734C185.368 227.721 183.863 227.49 183.009 227.328V225.796C183.659 225.904 185.341 226.27 187.13 226.284C188.689 226.297 189.462 226.026 189.462 225.402ZM199.141 225.402C199.141 224.724 198.571 224.508 196.714 224.44C194.816 224.399 192.687 224.291 192.687 222.176C192.687 220.589 194.002 219.857 196.755 219.83C198.043 219.816 199.222 219.966 200.402 220.21V221.701C199.005 221.416 197.622 221.24 196.429 221.267C195.06 221.321 194.477 221.62 194.477 222.162C194.477 222.826 195.046 223.016 197.229 223.097C198.91 223.125 200.903 223.287 200.903 225.28C200.903 226.948 199.534 227.761 196.565 227.734C195.046 227.721 193.541 227.49 192.687 227.328V225.796C193.338 225.904 195.019 226.27 196.809 226.284C198.368 226.297 199.141 226.026 199.141 225.402ZM206.555 218.488C206.257 218.298 205.932 218.095 205.538 218.095C205.186 218.095 204.779 218.271 204.332 218.772V217.349C204.82 216.807 205.227 216.617 205.606 216.617C206.121 216.617 206.542 216.956 206.962 217.186C207.165 217.308 207.437 217.403 207.721 217.403C208.114 217.403 208.575 217.24 209.064 216.766V218.189C208.521 218.705 208.047 218.881 207.64 218.881C207.206 218.881 206.854 218.678 206.555 218.488ZM202.257 225.294C202.257 223.762 203.559 222.975 206.108 222.975C206.921 222.975 208.236 223.03 208.928 223.125C208.928 223.016 208.928 222.908 208.928 222.786C208.901 221.728 208.236 221.308 206.65 221.308C205.43 221.308 204.033 221.443 203.057 221.66V220.196C203.871 220.02 205.294 219.83 206.637 219.83C209.443 219.83 210.731 220.711 210.731 222.664V227.612H209.104L208.982 226.595C208.277 227.341 207.165 227.761 205.674 227.761C203.478 227.761 202.257 226.88 202.257 225.294ZM208.941 224.955V224.25C208.196 224.236 206.894 224.236 206.176 224.236C204.793 224.236 204.088 224.616 204.088 225.348C204.088 226.053 204.752 226.406 206.108 226.406C207.287 226.406 208.657 225.89 208.941 224.955ZM212.373 223.789C212.373 221.416 214.19 219.83 217.105 219.83C220.033 219.83 221.836 221.416 221.836 223.789C221.836 226.162 220.033 227.748 217.105 227.748C214.19 227.748 212.373 226.162 212.373 223.789ZM214.217 223.789C214.217 225.294 215.383 226.256 217.105 226.256C218.84 226.256 219.993 225.294 219.993 223.789C219.993 222.284 218.84 221.335 217.105 221.335C215.383 221.335 214.217 222.284 214.217 223.789ZM227.284 227.612V218.122H235.839V219.667H229.128V221.918H234.728V223.423H229.128V226.067H235.839V227.612H227.284ZM244.096 227.612L241.764 225.131L241.316 225.118L239.052 227.612H236.842L240.421 223.748L236.869 219.966H239.079L241.411 222.447L241.818 222.46L244.096 219.966H246.306L242.74 223.816L246.306 227.612H244.096ZM251.394 219.83C253.903 219.83 255.516 221.118 255.516 223.179C255.516 223.68 255.448 224.114 255.381 224.358H248.696C248.968 225.551 250.093 226.284 251.855 226.284C252.737 226.284 254.174 226.148 255.082 225.931V227.395C254.323 227.572 253.157 227.761 251.95 227.761C248.696 227.748 246.771 226.189 246.771 223.789C246.771 221.443 248.615 219.83 251.394 219.83ZM248.683 223.179H253.781C253.781 222.054 252.791 221.308 251.327 221.308C249.89 221.308 248.927 222.026 248.683 223.179ZM261.92 227.761C258.666 227.748 256.768 226.189 256.768 223.789C256.768 221.389 258.679 219.83 261.974 219.83C263.126 219.83 264.062 220.02 264.808 220.196V221.687C263.926 221.471 262.692 221.335 261.893 221.335C259.805 221.335 258.612 222.284 258.612 223.789C258.612 225.294 259.805 226.256 261.893 226.256C262.692 226.256 263.926 226.121 264.808 225.904V227.395C264.062 227.572 263.072 227.761 261.92 227.761ZM273.357 227.612L273.275 227.056C272.191 227.477 270.876 227.748 269.9 227.748C267.907 227.748 266.496 226.663 266.496 225.24V219.966H268.286V224.738C268.286 225.674 269.059 226.243 270.32 226.243C271.106 226.243 272.218 226.012 273.221 225.606V219.966H275.011V227.612H273.357ZM278.292 218.108L280.082 217.606V219.966H284.122V221.267H280.082V224.684C280.082 225.741 280.719 226.216 282.156 226.216C282.712 226.216 283.661 226.134 284.38 225.89V227.341C283.688 227.653 282.577 227.748 281.912 227.748C279.702 227.748 278.292 226.677 278.292 225.05V221.267H276.381V219.966H278.292V218.108ZM285.757 217.756C285.757 217.064 286.218 216.752 286.909 216.752C287.587 216.752 288.035 217.064 288.035 217.756C288.035 218.447 287.587 218.786 286.909 218.786C286.218 218.786 285.757 218.447 285.757 217.756ZM286.001 227.612V219.966H287.791V227.612H286.001ZM292.845 227.612L289.035 219.966H290.92L293.767 225.836H294.215L297.062 219.966H298.946L295.136 227.612H292.845ZM299.415 225.294C299.415 223.762 300.716 222.975 303.265 222.975C304.079 222.975 305.394 223.03 306.085 223.125C306.085 223.016 306.085 222.908 306.085 222.786C306.058 221.728 305.394 221.308 303.807 221.308C302.587 221.308 301.191 221.443 300.215 221.66V220.196C301.028 220.02 302.452 219.83 303.794 219.83C306.6 219.83 307.888 220.711 307.888 222.664V227.612H306.261L306.139 226.595C305.434 227.341 304.323 227.761 302.831 227.761C300.635 227.761 299.415 226.88 299.415 225.294ZM306.099 224.955V224.25C305.353 224.236 304.051 224.236 303.333 224.236C301.95 224.236 301.245 224.616 301.245 225.348C301.245 226.053 301.909 226.406 303.265 226.406C304.445 226.406 305.814 225.89 306.099 224.955Z" fill="white"/>
<rect x="42.0024" y="99.2305" width="178.049" height="40.6592" rx="5.42322" fill="#A9957E"/>
<path d="M64.6405 115.365L67.315 108.75H70.377L73.0515 115.365H71.2086L70.6983 114.099H66.9842L66.4834 115.365H64.6405ZM67.4851 112.795H70.2069L69.1673 110.177H68.5247L67.4851 112.795ZM73.9971 115.365V108.75H75.8967L79.3272 112.719H79.4595V108.75H81.189V115.365H79.3461L75.8589 111.32H75.7266V115.365H73.9971ZM85.1442 115.365V110.139H82.1201V108.75H89.8978V110.139H86.8737V115.365H85.1442ZM92.7537 108.391L94.332 106.179H96.0142L94.3225 108.391H92.7537ZM90.2683 112.058C90.2683 110.016 91.752 108.655 94.3792 108.655C97.0159 108.655 98.4902 110.016 98.4902 112.058C98.4902 114.099 97.0159 115.46 94.3792 115.46C91.752 115.46 90.2683 114.099 90.2683 112.058ZM92.0355 112.058C92.0355 113.296 92.9333 114.071 94.3792 114.071C95.8346 114.071 96.723 113.296 96.723 112.058C96.723 110.82 95.8346 110.045 94.3792 110.045C92.9333 110.045 92.0355 110.82 92.0355 112.058ZM99.7738 115.365V108.75H101.673L105.104 112.719H105.236V108.75H106.966V115.365H105.123L101.636 111.32H101.503V115.365H99.7738ZM108.624 115.365V108.75H110.354V115.365H108.624ZM111.643 112.058C111.643 110.016 113.126 108.655 115.754 108.655C118.39 108.655 119.865 110.016 119.865 112.058C119.865 114.099 118.39 115.46 115.754 115.46C113.126 115.46 111.643 114.099 111.643 112.058ZM113.41 112.058C113.41 113.296 114.308 114.071 115.754 114.071C117.209 114.071 118.097 113.296 118.097 112.058C118.097 110.82 117.209 110.045 115.754 110.045C114.308 110.045 113.41 110.82 113.41 112.058ZM125.559 115.365L122.885 108.75H124.728L126.769 113.938H127.412L129.453 108.75H131.296L128.621 115.365H125.559ZM130.674 115.365L133.349 108.75H136.411L139.085 115.365H137.242L136.732 114.099H133.018L132.517 115.365H130.674ZM133.519 112.795H136.241L135.201 110.177H134.558L133.519 112.795ZM140.031 115.365V108.75H141.93L145.361 112.719H145.493V108.75H147.223V115.365H145.38L141.893 111.32H141.76V115.365H140.031ZM148.503 112.814V111.623H151.754V112.814H148.503ZM153.044 115.365V108.75H156.928C159.281 108.75 160.595 110.016 160.595 112.058C160.595 114.099 159.281 115.365 156.928 115.365H153.044ZM156.928 110.139H154.773V113.976H156.928C158.109 113.976 158.827 113.296 158.827 112.058C158.827 110.82 158.109 110.139 156.928 110.139ZM163.747 108.391L165.325 106.179H167.008L165.316 108.391H163.747ZM165.373 114.071C166.554 114.071 167.244 113.485 167.244 112.511V108.74H168.964V112.511C168.964 114.449 167.688 115.46 165.382 115.46C163.067 115.46 161.781 114.449 161.781 112.511V108.74H163.511V112.511C163.511 113.494 164.191 114.071 165.373 114.071ZM170.533 115.365V108.75H172.432L175.863 112.719H175.995V108.75H177.725V115.365H175.882L172.394 111.32H172.262V115.365H170.533ZM179.383 115.365V108.75H185.734V110.139H181.113V111.33H184.931V112.606H181.113V113.976H185.734V115.365H179.383ZM187.117 115.365V108.75H189.074L191.361 111.689H191.625L193.912 108.75H195.859V115.365H194.139V111.16H193.969L192.154 113.532H190.822L189.007 111.16H188.847V115.365H187.117Z" fill="white"/>
<path d="M72.3335 129.755V123.875H77.6342V124.832H73.476V126.252H76.9454V127.184H73.476V129.755H72.3335ZM78.1564 127.386C78.1564 125.916 79.2821 124.933 81.0882 124.933C82.9027 124.933 84.02 125.916 84.02 127.386C84.02 128.856 82.9027 129.839 81.0882 129.839C79.2821 129.839 78.1564 128.856 78.1564 127.386ZM79.2989 127.386C79.2989 128.318 80.0213 128.915 81.0882 128.915C82.1635 128.915 82.8775 128.318 82.8775 127.386C82.8775 126.453 82.1635 125.865 81.0882 125.865C80.0213 125.865 79.2989 126.453 79.2989 127.386ZM89.321 129.755L89.2706 129.41C88.5986 129.671 87.7837 129.839 87.1789 129.839C85.944 129.839 85.0704 129.167 85.0704 128.285V125.017H86.1792V127.974C86.1792 128.554 86.658 128.906 87.4393 128.906C87.9265 128.906 88.6154 128.764 89.237 128.512V125.017H90.3458V129.755H89.321ZM92.7821 125.017L92.8325 125.361C93.5046 125.101 94.3194 124.933 94.9242 124.933C96.1591 124.933 97.0328 125.605 97.0328 126.487V129.755H95.9239V126.798C95.9239 126.218 95.4451 125.865 94.6638 125.865C94.1766 125.865 93.4878 126.008 92.8661 126.26V129.755H91.7573V125.017H92.7821ZM103.904 129.755H102.98L102.888 129.427C102.443 129.612 101.729 129.839 100.905 129.839C99.175 129.839 98.0829 128.864 98.0829 127.386C98.0829 125.907 99.175 124.933 100.905 124.933C101.678 124.933 102.35 125.126 102.796 125.303V123.539H103.904V129.755ZM101.099 128.915C101.796 128.915 102.451 128.755 102.796 128.596V126.176C102.443 126.017 101.779 125.857 101.09 125.857C99.8974 125.857 99.217 126.453 99.217 127.386C99.217 128.318 99.8974 128.915 101.099 128.915ZM107.863 124.933C109.417 124.933 110.417 125.731 110.417 127.008C110.417 127.319 110.375 127.588 110.333 127.739H106.191C106.359 128.478 107.057 128.932 108.149 128.932C108.695 128.932 109.585 128.848 110.148 128.713V129.62C109.678 129.73 108.955 129.847 108.208 129.847C106.191 129.839 104.999 128.873 104.999 127.386C104.999 125.933 106.141 124.933 107.863 124.933ZM106.183 127.008H109.342C109.342 126.311 108.728 125.849 107.821 125.849C106.931 125.849 106.334 126.294 106.183 127.008ZM111.511 125.017H112.503L112.612 125.714C113.158 125.244 113.906 124.933 114.662 124.933C114.981 124.933 115.317 124.975 115.443 125.009V125.983C115.25 125.941 115.031 125.924 114.83 125.924C113.981 125.933 113.091 126.243 112.62 126.798V129.755H111.511V125.017ZM118.313 128.318C118.313 127.369 119.119 126.882 120.699 126.882C121.203 126.882 122.018 126.916 122.446 126.974C122.446 126.907 122.446 126.84 122.446 126.764C122.429 126.109 122.018 125.849 121.035 125.849C120.279 125.849 119.413 125.933 118.809 126.067V125.16C119.313 125.051 120.195 124.933 121.026 124.933C122.765 124.933 123.563 125.479 123.563 126.689V129.755H122.555L122.48 129.125C122.043 129.587 121.354 129.847 120.43 129.847C119.069 129.847 118.313 129.301 118.313 128.318ZM122.454 128.108V127.672C121.992 127.663 121.186 127.663 120.741 127.663C119.884 127.663 119.447 127.898 119.447 128.352C119.447 128.789 119.859 129.007 120.699 129.007C121.43 129.007 122.278 128.688 122.454 128.108ZM125.925 125.017L125.975 125.361C126.647 125.101 127.462 124.933 128.067 124.933C129.302 124.933 130.175 125.605 130.175 126.487V129.755H129.066V126.798C129.066 126.218 128.588 125.865 127.806 125.865C127.319 125.865 126.63 126.008 126.009 126.26V129.755H124.9V125.017H125.925ZM137.047 129.755H136.123L136.03 129.427C135.585 129.612 134.871 129.839 134.048 129.839C132.317 129.839 131.225 128.864 131.225 127.386C131.225 125.907 132.317 124.933 134.048 124.933C134.821 124.933 135.493 125.126 135.938 125.303V123.539H137.047V129.755ZM134.241 128.915C134.938 128.915 135.594 128.755 135.938 128.596V126.176C135.585 126.017 134.922 125.857 134.233 125.857C133.04 125.857 132.359 126.453 132.359 127.386C132.359 128.318 133.04 128.915 134.241 128.915ZM143.961 128.898C144.801 128.898 145.825 128.789 146.464 128.612V129.587C145.876 129.738 145.128 129.839 144.011 129.839C141.802 129.839 140.407 128.696 140.407 126.815C140.407 124.933 141.802 123.791 144.011 123.791C145.128 123.791 145.876 123.891 146.464 124.043V125.017C145.825 124.841 144.801 124.731 143.961 124.731C142.49 124.731 141.566 125.496 141.566 126.815C141.566 128.134 142.49 128.898 143.961 128.898ZM148.667 123.539V125.353C149.331 125.093 150.129 124.933 150.725 124.933C151.96 124.933 152.834 125.605 152.834 126.487V129.755H151.725V126.798C151.725 126.218 151.246 125.865 150.465 125.865C149.977 125.865 149.289 126.008 148.667 126.26V129.755H147.558V123.539H148.667ZM153.892 128.318C153.892 127.369 154.698 126.882 156.278 126.882C156.782 126.882 157.597 126.916 158.025 126.974C158.025 126.907 158.025 126.84 158.025 126.764C158.008 126.109 157.597 125.849 156.614 125.849C155.858 125.849 154.992 125.933 154.388 126.067V125.16C154.892 125.051 155.774 124.933 156.605 124.933C158.344 124.933 159.142 125.479 159.142 126.689V129.755H158.134L158.059 129.125C157.622 129.587 156.933 129.847 156.009 129.847C154.648 129.847 153.892 129.301 153.892 128.318ZM158.033 128.108V127.672C157.571 127.663 156.765 127.663 156.32 127.663C155.463 127.663 155.026 127.898 155.026 128.352C155.026 128.789 155.438 129.007 156.278 129.007C157.008 129.007 157.857 128.688 158.033 128.108ZM160.327 123.648C160.327 123.219 160.613 123.026 161.041 123.026C161.462 123.026 161.739 123.219 161.739 123.648C161.739 124.076 161.462 124.286 161.041 124.286C160.613 124.286 160.327 124.076 160.327 123.648ZM160.479 129.755V125.017H161.588V129.755H160.479ZM162.997 125.017H163.988L164.098 125.714C164.644 125.244 165.391 124.933 166.147 124.933C166.467 124.933 166.803 124.975 166.929 125.009V125.983C166.735 125.941 166.517 125.924 166.315 125.924C165.467 125.933 164.576 126.243 164.106 126.798V129.755H162.997V125.017ZM168.961 125.017L169.003 125.345C169.599 125.084 170.288 124.933 170.8 124.933C171.397 124.933 171.901 125.151 172.22 125.504C172.875 125.16 173.74 124.933 174.354 124.933C175.404 124.933 176.151 125.605 176.151 126.487V129.755H175.042V126.798C175.042 126.218 174.664 125.865 174.043 125.865C173.656 125.865 173.085 126.008 172.556 126.252C172.581 126.353 172.598 126.453 172.598 126.563V129.755H171.489V126.798C171.489 126.218 171.111 125.865 170.489 125.865C170.111 125.865 169.565 126 169.045 126.235V129.755H167.936V125.017H168.961ZM177.198 128.318C177.198 127.369 178.005 126.882 179.584 126.882C180.088 126.882 180.903 126.916 181.331 126.974C181.331 126.907 181.331 126.84 181.331 126.764C181.314 126.109 180.903 125.849 179.92 125.849C179.164 125.849 178.299 125.933 177.694 126.067V125.16C178.198 125.051 179.08 124.933 179.912 124.933C181.651 124.933 182.449 125.479 182.449 126.689V129.755H181.441L181.365 129.125C180.928 129.587 180.239 129.847 179.315 129.847C177.954 129.847 177.198 129.301 177.198 128.318ZM181.34 128.108V127.672C180.878 127.663 180.071 127.663 179.626 127.663C178.769 127.663 178.332 127.898 178.332 128.352C178.332 128.789 178.744 129.007 179.584 129.007C180.315 129.007 181.163 128.688 181.34 128.108ZM184.81 125.017L184.86 125.361C185.532 125.101 186.347 124.933 186.952 124.933C188.187 124.933 189.061 125.605 189.061 126.487V129.755H187.952V126.798C187.952 126.218 187.473 125.865 186.692 125.865C186.204 125.865 185.516 126.008 184.894 126.26V129.755H183.785V125.017H184.81Z" fill="#E0E0E0"/>
<rect x="230.898" y="99.2305" width="178.05" height="40.6592" rx="5.42322" fill="#A9957E"/>
<path d="M267.255 115.365V108.75H268.984V111.198H272.906V108.75H274.636V115.365H272.906V112.596H268.984V115.365H267.255ZM277.708 108.391L279.286 106.179H280.968L279.276 108.391H277.708ZM276.299 115.365V108.75H282.65V110.139H278.029V111.33H281.847V112.606H278.029V113.976H282.65V115.365H276.299ZM284.033 115.365V108.75H285.763V113.976H290.025V115.365H284.033ZM291.306 115.365V108.75H295.19C297.543 108.75 298.857 110.016 298.857 112.058C298.857 114.099 297.543 115.365 295.19 115.365H291.306ZM295.19 110.139H293.035V113.976H295.19C296.371 113.976 297.09 113.296 297.09 112.058C297.09 110.82 296.371 110.139 295.19 110.139ZM300.138 115.365V108.75H306.489V110.139H301.867V111.33H305.685V112.606H301.867V113.976H306.489V115.365H300.138ZM307.872 115.365V108.75H311.917C314.024 108.75 314.998 109.515 314.998 110.971C314.998 112.114 314.44 112.785 313.363 112.965C313.334 112.974 313.278 112.974 313.249 112.984C313.75 113.39 314.09 113.882 314.629 113.882H315.461V115.394H314.421C312.644 115.394 312.285 113.211 310.594 113.116H309.601V115.365H307.872ZM311.907 110.139H309.601V111.935H311.907C312.833 111.935 313.23 111.642 313.23 111.037C313.23 110.442 312.833 110.139 311.907 110.139ZM318.974 115.365V108.75H320.931L323.218 111.689H323.482L325.769 108.75H327.716V115.365H325.996V111.16H325.826L324.012 113.532H322.679L320.865 111.16H320.704V115.365H318.974ZM329.376 115.365V108.75H331.105V115.365H329.376ZM332.772 115.365V108.75H334.501V113.976H338.763V115.365H332.772ZM339.326 115.365L342.001 108.75H345.063L347.737 115.365H345.894L345.384 114.099H341.67L341.169 115.365H339.326ZM342.171 112.795H344.892L343.853 110.177H343.21L342.171 112.795ZM352.264 114.071C352.756 114.071 353.37 114.033 353.861 113.976V111.783H355.468V115.129C354.693 115.318 353.474 115.46 352.34 115.46C349.467 115.46 347.926 114.118 347.926 112.058C347.926 109.997 349.476 108.655 352.453 108.655C353.521 108.655 354.4 108.759 355.118 108.939V110.366C354.39 110.167 353.162 110.045 352.302 110.045C350.601 110.045 349.694 110.791 349.694 112.058C349.694 113.324 350.629 114.071 352.264 114.071ZM356.943 115.365V108.75H360.988C363.095 108.75 364.068 109.515 364.068 110.971C364.068 112.114 363.511 112.785 362.433 112.965C362.405 112.974 362.348 112.974 362.32 112.984C362.821 113.39 363.161 113.882 363.7 113.882H364.531V115.394H363.492C361.715 115.394 361.356 113.211 359.664 113.116H358.672V115.365H356.943ZM360.978 110.139H358.672V111.935H360.978C361.904 111.935 362.301 111.642 362.301 111.037C362.301 110.442 361.904 110.139 360.978 110.139ZM365.59 115.365V108.75H371.941V110.139H367.32V111.33H371.138V112.606H367.32V113.976H371.941V115.365H365.59Z" fill="white"/>
<path d="M275.73 129.755V123.875H281.03V124.832H276.872V126.252H280.342V127.184H276.872V129.755H275.73ZM281.553 127.386C281.553 125.916 282.678 124.933 284.484 124.933C286.299 124.933 287.416 125.916 287.416 127.386C287.416 128.856 286.299 129.839 284.484 129.839C282.678 129.839 281.553 128.856 281.553 127.386ZM282.695 127.386C282.695 128.318 283.418 128.915 284.484 128.915C285.56 128.915 286.274 128.318 286.274 127.386C286.274 126.453 285.56 125.865 284.484 125.865C283.418 125.865 282.695 126.453 282.695 127.386ZM292.717 129.755L292.667 129.41C291.995 129.671 291.18 129.839 290.575 129.839C289.34 129.839 288.467 129.167 288.467 128.285V125.017H289.575V127.974C289.575 128.554 290.054 128.906 290.836 128.906C291.323 128.906 292.012 128.764 292.633 128.512V125.017H293.742V129.755H292.717ZM296.178 125.017L296.229 125.361C296.901 125.101 297.716 124.933 298.32 124.933C299.555 124.933 300.429 125.605 300.429 126.487V129.755H299.32V126.798C299.32 126.218 298.841 125.865 298.06 125.865C297.573 125.865 296.884 126.008 296.262 126.26V129.755H295.153V125.017H296.178ZM307.301 129.755H306.377L306.284 129.427C305.839 129.612 305.125 129.839 304.302 129.839C302.571 129.839 301.479 128.864 301.479 127.386C301.479 125.907 302.571 124.933 304.302 124.933C305.075 124.933 305.747 125.126 306.192 125.303V123.539H307.301V129.755ZM304.495 128.915C305.192 128.915 305.847 128.755 306.192 128.596V126.176C305.839 126.017 305.175 125.857 304.487 125.857C303.294 125.857 302.613 126.453 302.613 127.386C302.613 128.318 303.294 128.915 304.495 128.915ZM311.259 124.933C312.813 124.933 313.813 125.731 313.813 127.008C313.813 127.319 313.771 127.588 313.729 127.739H309.588C309.756 128.478 310.453 128.932 311.545 128.932C312.091 128.932 312.981 128.848 313.544 128.713V129.62C313.074 129.73 312.351 129.847 311.604 129.847C309.588 129.839 308.395 128.873 308.395 127.386C308.395 125.933 309.537 124.933 311.259 124.933ZM309.579 127.008H312.738C312.738 126.311 312.125 125.849 311.217 125.849C310.327 125.849 309.73 126.294 309.579 127.008ZM314.908 125.017H315.899L316.008 125.714C316.554 125.244 317.302 124.933 318.058 124.933C318.377 124.933 318.713 124.975 318.839 125.009V125.983C318.646 125.941 318.428 125.924 318.226 125.924C317.377 125.933 316.487 126.243 316.017 126.798V129.755H314.908V125.017ZM321.709 128.318C321.709 127.369 322.516 126.882 324.095 126.882C324.599 126.882 325.414 126.916 325.842 126.974C325.842 126.907 325.842 126.84 325.842 126.764C325.825 126.109 325.414 125.849 324.431 125.849C323.675 125.849 322.81 125.933 322.205 126.067V125.16C322.709 125.051 323.591 124.933 324.423 124.933C326.161 124.933 326.96 125.479 326.96 126.689V129.755H325.951L325.876 129.125C325.439 129.587 324.75 129.847 323.826 129.847C322.465 129.847 321.709 129.301 321.709 128.318ZM325.851 128.108V127.672C325.389 127.663 324.582 127.663 324.137 127.663C323.28 127.663 322.843 127.898 322.843 128.352C322.843 128.789 323.255 129.007 324.095 129.007C324.826 129.007 325.674 128.688 325.851 128.108ZM329.321 125.017L329.371 125.361C330.043 125.101 330.858 124.933 331.463 124.933C332.698 124.933 333.571 125.605 333.571 126.487V129.755H332.463V126.798C332.463 126.218 331.984 125.865 331.203 125.865C330.715 125.865 330.026 126.008 329.405 126.26V129.755H328.296V125.017H329.321ZM340.443 129.755H339.519L339.427 129.427C338.981 129.612 338.267 129.839 337.444 129.839C335.714 129.839 334.622 128.864 334.622 127.386C334.622 125.907 335.714 124.933 337.444 124.933C338.217 124.933 338.889 125.126 339.334 125.303V123.539H340.443V129.755ZM337.637 128.915C338.335 128.915 338.99 128.755 339.334 128.596V126.176C338.981 126.017 338.318 125.857 337.629 125.857C336.436 125.857 335.756 126.453 335.756 127.386C335.756 128.318 336.436 128.915 337.637 128.915ZM347.357 128.898C348.197 128.898 349.222 128.789 349.86 128.612V129.587C349.272 129.738 348.524 129.839 347.407 129.839C345.198 129.839 343.803 128.696 343.803 126.815C343.803 124.933 345.198 123.791 347.407 123.791C348.524 123.791 349.272 123.891 349.86 124.043V125.017C349.222 124.841 348.197 124.731 347.357 124.731C345.887 124.731 344.963 125.496 344.963 126.815C344.963 128.134 345.887 128.898 347.357 128.898ZM351.055 129.755V123.875H356.356V124.832H352.198V126.227H355.667V127.159H352.198V128.797H356.356V129.755H351.055ZM357.38 126.815C357.38 125 358.741 123.791 360.892 123.791C363.051 123.791 364.403 125 364.403 126.815C364.403 128.629 363.051 129.839 360.892 129.839C358.741 129.839 357.38 128.629 357.38 126.815ZM358.54 126.815C358.54 128.092 359.489 128.906 360.892 128.906C362.303 128.906 363.244 128.092 363.244 126.815C363.244 125.538 362.303 124.731 360.892 124.731C359.489 124.731 358.54 125.538 358.54 126.815Z" fill="#E0E0E0"/>
<rect x="42.2649" y="345.238" width="164.334" height="39.6592" rx="5.42322" fill="#EFEFEF"/>
<path d="M86.5313 360.365C87.3126 360.365 88.3458 360.255 88.9842 360.079V361.205C88.3962 361.356 87.6486 361.457 86.5985 361.457C84.2632 361.457 82.8687 360.331 82.8687 358.432C82.8687 356.534 84.2632 355.408 86.5985 355.408C87.6486 355.408 88.3962 355.509 88.9842 355.66V356.786C88.3458 356.609 87.3126 356.5 86.5313 356.5C85.078 356.5 84.2296 357.214 84.2296 358.432C84.2296 359.65 85.078 360.365 86.5313 360.365ZM90.1121 361.373V355.492H95.5808V356.593H91.4478V357.811H94.8836V358.844H91.4478V360.272H95.5808V361.373H90.1121ZM96.8719 361.373V355.492H98.2076V360.272H102.072V361.373H96.8719ZM103.279 361.373V355.492H104.749L106.95 358.281H107.168L109.361 355.492H110.839V361.373H109.495V357.433H109.361L107.605 359.692H106.513L104.757 357.433H104.615V361.373H103.279ZM112.385 361.373V355.492H113.721V361.373H112.385ZM115.264 361.373V355.492H118.759C120.565 355.492 121.397 356.156 121.397 357.424C121.397 358.449 120.867 359.071 119.901 359.172C119.885 359.18 119.834 359.188 119.817 359.188C120.321 359.634 120.641 360.213 121.17 360.213H121.892V361.389H120.977C119.448 361.389 119.213 359.407 117.684 359.281H116.6V361.373H115.264ZM118.742 356.584H116.6V358.332H118.742C119.649 358.332 120.036 358.046 120.036 357.458C120.036 356.87 119.649 356.584 118.742 356.584ZM122.264 361.373L124.717 355.492H127.128L129.581 361.373H128.153L127.657 360.154H124.196L123.692 361.373H122.264ZM124.591 359.13H127.254L126.229 356.618H125.616L124.591 359.13ZM132.689 361.373V355.492H134.159L136.36 358.281H136.578L138.771 355.492H140.249V361.373H138.905V357.433H138.771L137.015 359.692H135.923L134.167 357.433H134.024V361.373H132.689ZM141.459 358.432C141.459 356.618 142.794 355.408 145.046 355.408C147.297 355.408 148.624 356.618 148.624 358.432C148.624 360.247 147.297 361.457 145.046 361.457C142.794 361.457 141.459 360.247 141.459 358.432ZM142.82 358.432C142.82 359.625 143.693 360.373 145.046 360.373C146.39 360.373 147.263 359.625 147.263 358.432C147.263 357.24 146.39 356.5 145.046 356.5C143.693 356.5 142.82 357.24 142.82 358.432ZM149.834 361.373V355.492H151.17V361.373H149.834ZM154.805 361.373V356.593H152.058V355.492H158.888V356.593H156.141V361.373H154.805ZM158.319 361.373L160.771 355.492H163.182L165.635 361.373H164.207L163.712 360.154H160.251L159.747 361.373H158.319ZM160.645 359.13H163.308L162.284 356.618H161.67L160.645 359.13Z" fill="#565656"/>
<path d="M59.7383 374.762V368.882H62.9893C64.913 368.882 66.1143 370.008 66.1143 371.822C66.1143 373.637 64.913 374.762 62.9893 374.762H59.7383ZM62.9893 369.823H60.8808V373.821H62.9893C64.1654 373.821 64.955 373.099 64.955 371.822C64.955 370.545 64.1654 369.823 62.9893 369.823ZM67.1403 368.655C67.1403 368.227 67.4259 368.033 67.8543 368.033C68.2743 368.033 68.5515 368.227 68.5515 368.655C68.5515 369.083 68.2743 369.294 67.8543 369.294C67.4259 369.294 67.1403 369.083 67.1403 368.655ZM67.2915 374.762V370.024H68.4003V374.762H67.2915ZM69.81 370.024H70.8012L70.9104 370.722C71.4565 370.251 72.2041 369.94 72.9601 369.94C73.2794 369.94 73.6154 369.982 73.7414 370.016V370.99C73.5482 370.948 73.3298 370.932 73.1281 370.932C72.2797 370.94 71.3893 371.251 70.9188 371.805V374.762H69.81V370.024ZM77.2939 369.94C78.8479 369.94 79.8476 370.738 79.8476 372.015C79.8476 372.326 79.8056 372.595 79.7636 372.746H75.6222C75.7902 373.485 76.4874 373.939 77.5795 373.939C78.1255 373.939 79.016 373.855 79.5788 373.721V374.628C79.1084 374.737 78.3859 374.855 77.6383 374.855C75.6222 374.846 74.4293 373.88 74.4293 372.393C74.4293 370.94 75.5718 369.94 77.2939 369.94ZM75.6138 372.015H78.7723C78.7723 371.318 78.1591 370.856 77.2519 370.856C76.3614 370.856 75.765 371.301 75.6138 372.015ZM83.8152 374.855C81.7991 374.846 80.623 373.88 80.623 372.393C80.623 370.906 81.8075 369.94 83.8488 369.94C84.5628 369.94 85.1425 370.058 85.6045 370.167V371.091C85.0584 370.957 84.294 370.873 83.7984 370.873C82.5047 370.873 81.7655 371.461 81.7655 372.393C81.7655 373.326 82.5047 373.922 83.7984 373.922C84.294 373.922 85.0584 373.838 85.6045 373.704V374.628C85.1425 374.737 84.5292 374.855 83.8152 374.855ZM87.3146 368.873L88.4234 368.563V370.024H90.9268V370.831H88.4234V372.948C88.4234 373.603 88.8182 373.897 89.7087 373.897C90.0531 373.897 90.6411 373.847 91.0864 373.695V374.594C90.658 374.787 89.9691 374.846 89.5575 374.846C88.1882 374.846 87.3146 374.183 87.3146 373.175V370.831H86.1301V370.024H87.3146V368.873ZM91.7717 372.393C91.7717 370.923 92.8973 369.94 94.7034 369.94C96.5179 369.94 97.6352 370.923 97.6352 372.393C97.6352 373.863 96.5179 374.846 94.7034 374.846C92.8973 374.846 91.7717 373.863 91.7717 372.393ZM92.9141 372.393C92.9141 373.326 93.6366 373.922 94.7034 373.922C95.7787 373.922 96.4927 373.326 96.4927 372.393C96.4927 371.461 95.7787 370.873 94.7034 370.873C93.6366 370.873 92.9141 371.461 92.9141 372.393ZM98.7276 370.024H99.7188L99.828 370.722C100.374 370.251 101.122 369.94 101.878 369.94C102.197 369.94 102.533 369.982 102.659 370.016V370.99C102.466 370.948 102.247 370.932 102.046 370.932C101.197 370.94 100.307 371.251 99.8364 371.805V374.762H98.7276V370.024ZM103.183 373.326C103.183 372.376 103.989 371.889 105.569 371.889C106.073 371.889 106.887 371.923 107.316 371.982C107.316 371.914 107.316 371.847 107.316 371.772C107.299 371.116 106.887 370.856 105.905 370.856C105.149 370.856 104.283 370.94 103.678 371.074V370.167C104.183 370.058 105.065 369.94 105.896 369.94C107.635 369.94 108.433 370.486 108.433 371.696V374.762H107.425L107.349 374.132C106.913 374.594 106.224 374.855 105.3 374.855C103.939 374.855 103.183 374.309 103.183 373.326ZM107.324 373.116V372.679C106.862 372.67 106.056 372.67 105.611 372.67C104.754 372.67 104.317 372.906 104.317 373.359C104.317 373.796 104.729 374.015 105.569 374.015C106.299 374.015 107.148 373.695 107.324 373.116ZM111.448 374.762L113.976 368.882H116.085L118.613 374.762H117.395L116.841 373.452H113.22L112.666 374.762H111.448ZM113.581 372.561H116.48L115.346 369.865H114.707L113.581 372.561ZM124.862 374.762H123.938L123.845 374.435C123.4 374.619 122.686 374.846 121.863 374.846C120.132 374.846 119.04 373.872 119.04 372.393C119.04 370.915 120.132 369.94 121.863 369.94C122.636 369.94 123.308 370.134 123.753 370.31V368.546H124.862V374.762ZM122.056 373.922C122.753 373.922 123.409 373.763 123.753 373.603V371.184C123.4 371.024 122.737 370.864 122.048 370.864C120.855 370.864 120.174 371.461 120.174 372.393C120.174 373.326 120.855 373.922 122.056 373.922ZM127.3 370.024L127.342 370.352C127.938 370.092 128.627 369.94 129.14 369.94C129.736 369.94 130.24 370.159 130.559 370.512C131.215 370.167 132.08 369.94 132.693 369.94C133.743 369.94 134.491 370.612 134.491 371.494V374.762H133.382V371.805C133.382 371.226 133.004 370.873 132.382 370.873C131.996 370.873 131.425 371.016 130.895 371.259C130.921 371.36 130.937 371.461 130.937 371.57V374.762H129.829V371.805C129.829 371.226 129.451 370.873 128.829 370.873C128.451 370.873 127.905 371.007 127.384 371.242V374.762H126.275V370.024H127.3ZM135.706 368.655C135.706 368.227 135.991 368.033 136.42 368.033C136.84 368.033 137.117 368.227 137.117 368.655C137.117 369.083 136.84 369.294 136.42 369.294C135.991 369.294 135.706 369.083 135.706 368.655ZM135.857 374.762V370.024H136.966V374.762H135.857ZM139.4 370.024L139.451 370.369C140.123 370.108 140.938 369.94 141.542 369.94C142.777 369.94 143.651 370.612 143.651 371.494V374.762H142.542V371.805C142.542 371.226 142.063 370.873 141.282 370.873C140.795 370.873 140.106 371.016 139.484 371.268V374.762H138.375V370.024H139.4ZM144.869 368.655C144.869 368.227 145.155 368.033 145.583 368.033C146.003 368.033 146.28 368.227 146.28 368.655C146.28 369.083 146.003 369.294 145.583 369.294C145.155 369.294 144.869 369.083 144.869 368.655ZM145.02 374.762V370.024H146.129V374.762H145.02ZM151.285 373.393C151.285 372.973 150.933 372.839 149.782 372.796C148.606 372.771 147.287 372.704 147.287 371.394C147.287 370.411 148.102 369.957 149.807 369.94C150.605 369.932 151.336 370.024 152.067 370.176V371.1C151.201 370.923 150.345 370.814 149.605 370.831C148.757 370.864 148.396 371.049 148.396 371.385C148.396 371.797 148.749 371.914 150.101 371.965C151.143 371.982 152.378 372.082 152.378 373.317C152.378 374.351 151.529 374.855 149.689 374.838C148.749 374.829 147.816 374.687 147.287 374.586V373.637C147.69 373.704 148.732 373.931 149.841 373.939C150.807 373.947 151.285 373.779 151.285 373.393ZM154.157 368.873L155.266 368.563V370.024H157.77V370.831H155.266V372.948C155.266 373.603 155.661 373.897 156.551 373.897C156.896 373.897 157.484 373.847 157.929 373.695V374.594C157.501 374.787 156.812 374.846 156.4 374.846C155.031 374.846 154.157 374.183 154.157 373.175V370.831H152.973V370.024H154.157V368.873ZM158.934 370.024H159.925L160.034 370.722C160.58 370.251 161.328 369.94 162.084 369.94C162.403 369.94 162.739 369.982 162.865 370.016V370.99C162.672 370.948 162.453 370.932 162.252 370.932C161.403 370.94 160.513 371.251 160.043 371.805V374.762H158.934V370.024ZM163.389 373.326C163.389 372.376 164.195 371.889 165.775 371.889C166.279 371.889 167.094 371.923 167.522 371.982C167.522 371.914 167.522 371.847 167.522 371.772C167.505 371.116 167.094 370.856 166.111 370.856C165.355 370.856 164.489 370.94 163.885 371.074V370.167C164.389 370.058 165.271 369.94 166.102 369.94C167.841 369.94 168.639 370.486 168.639 371.696V374.762H167.631L167.556 374.132C167.119 374.594 166.43 374.855 165.506 374.855C164.145 374.855 163.389 374.309 163.389 373.326ZM167.53 373.116V372.679C167.068 372.67 166.262 372.67 165.817 372.67C164.96 372.67 164.523 372.906 164.523 373.359C164.523 373.796 164.935 374.015 165.775 374.015C166.505 374.015 167.354 373.695 167.53 373.116ZM170.597 368.873L171.706 368.563V370.024H174.21V370.831H171.706V372.948C171.706 373.603 172.101 373.897 172.991 373.897C173.336 373.897 173.924 373.847 174.369 373.695V374.594C173.941 374.787 173.252 374.846 172.84 374.846C171.471 374.846 170.597 374.183 170.597 373.175V370.831H169.413V370.024H170.597V368.873ZM175.222 368.655C175.222 368.227 175.508 368.033 175.936 368.033C176.356 368.033 176.634 368.227 176.634 368.655C176.634 369.083 176.356 369.294 175.936 369.294C175.508 369.294 175.222 369.083 175.222 368.655ZM175.374 374.762V370.024H176.482V374.762H175.374ZM179.614 374.762L177.254 370.024H178.421L180.185 373.662H180.463L182.227 370.024H183.394L181.034 374.762H179.614ZM183.685 373.326C183.685 372.376 184.491 371.889 186.07 371.889C186.574 371.889 187.389 371.923 187.818 371.982C187.818 371.914 187.818 371.847 187.818 371.772C187.801 371.116 187.389 370.856 186.406 370.856C185.65 370.856 184.785 370.94 184.18 371.074V370.167C184.684 370.058 185.566 369.94 186.398 369.94C188.137 369.94 188.935 370.486 188.935 371.696V374.762H187.927L187.851 374.132C187.414 374.594 186.726 374.855 185.801 374.855C184.441 374.855 183.685 374.309 183.685 373.326ZM187.826 373.116V372.679C187.364 372.67 186.558 372.67 186.112 372.67C185.255 372.67 184.819 372.906 184.819 373.359C184.819 373.796 185.23 374.015 186.07 374.015C186.801 374.015 187.65 373.695 187.826 373.116Z" fill="#878787"/>
<rect x="244.664" y="344.944" width="164.334" height="39.6592" rx="5.42322" fill="#EFEFEF"/>
<path d="M277.435 361.079L274.982 355.199H276.41L278.334 359.953H278.947L280.871 355.199H282.299L279.846 361.079H277.435ZM281.848 361.079L284.301 355.199H286.712L289.165 361.079H287.737L287.241 359.861H283.78L283.276 361.079H281.848ZM284.175 358.836H286.838L285.813 356.324H285.2L284.175 358.836ZM290.091 361.079V355.199H291.427V359.979H295.291V361.079H290.091ZM296.498 361.079V355.199H301.967V356.299H297.834V357.517H301.269V358.551H297.834V359.979H301.967V361.079H296.498ZM303.258 361.079V355.199H304.703L307.92 358.987H308.046V355.199H309.382V361.079H307.979L304.728 357.248H304.593V361.079H303.258ZM313.02 361.079V356.299H310.273V355.199H317.102V356.299H314.355V361.079H313.02ZM317.991 361.079V355.199H323.46V356.299H319.327V357.517H322.763V358.551H319.327V359.979H323.46V361.079H317.991ZM326.933 361.079V355.199H330.428C332.234 355.199 333.066 355.862 333.066 357.19C333.066 358.534 332.234 359.189 330.428 359.189H328.269V361.079H326.933ZM330.411 356.291H328.269V358.097H330.411C331.318 358.097 331.705 357.803 331.705 357.19C331.705 356.585 331.318 356.291 330.411 356.291ZM333.063 361.079L335.516 355.199H337.927L340.38 361.079H338.952L338.456 359.861H334.995L334.491 361.079H333.063ZM335.39 358.836H338.053L337.028 356.324H336.415L335.39 358.836ZM344.296 360.071C345.077 360.071 346.111 359.962 346.749 359.785V360.911C346.161 361.062 345.413 361.163 344.363 361.163C342.028 361.163 340.634 360.037 340.634 358.139C340.634 356.24 342.028 355.115 344.363 355.115C345.413 355.115 346.161 355.216 346.749 355.367V356.492C346.111 356.316 345.077 356.207 344.296 356.207C342.843 356.207 341.994 356.921 341.994 358.139C341.994 359.357 342.843 360.071 344.296 360.071ZM347.877 361.079V355.199H349.213V361.079H347.877ZM350.756 361.079V355.199H356.225V356.299H352.092V357.517H355.528V358.551H352.092V359.979H356.225V361.079H350.756ZM357.516 361.079V355.199H358.961L362.178 358.987H362.304V355.199H363.64V361.079H362.237L358.986 357.248H358.852V361.079H357.516ZM367.278 361.079V356.299H364.531V355.199H371.361V356.299H368.614V361.079H367.278ZM372.25 361.079V355.199H377.718V356.299H373.585V357.517H377.021V358.551H373.585V359.979H377.718V361.079H372.25Z" fill="#565656"/>
<path d="M268.137 374.469V368.588H271.388C273.312 368.588 274.513 369.714 274.513 371.529C274.513 373.343 273.312 374.469 271.388 374.469H268.137ZM271.388 369.529H269.279V373.528H271.388C272.564 373.528 273.354 372.805 273.354 371.529C273.354 370.252 272.564 369.529 271.388 369.529ZM275.539 368.362C275.539 367.933 275.825 367.74 276.253 367.74C276.673 367.74 276.95 367.933 276.95 368.362C276.95 368.79 276.673 369 276.253 369C275.825 369 275.539 368.79 275.539 368.362ZM275.69 374.469V369.731H276.799V374.469H275.69ZM278.209 369.731H279.2L279.309 370.428C279.855 369.958 280.603 369.647 281.359 369.647C281.678 369.647 282.014 369.689 282.14 369.722V370.697C281.947 370.655 281.728 370.638 281.527 370.638C280.678 370.647 279.788 370.957 279.318 371.512V374.469H278.209V369.731ZM285.693 369.647C287.247 369.647 288.246 370.445 288.246 371.722C288.246 372.033 288.204 372.301 288.162 372.453H284.021C284.189 373.192 284.886 373.646 285.978 373.646C286.524 373.646 287.415 373.561 287.977 373.427V374.334C287.507 374.444 286.785 374.561 286.037 374.561C284.021 374.553 282.828 373.587 282.828 372.1C282.828 370.647 283.97 369.647 285.693 369.647ZM284.012 371.722H287.171C287.171 371.025 286.558 370.563 285.651 370.563C284.76 370.563 284.164 371.008 284.012 371.722ZM292.214 374.561C290.198 374.553 289.022 373.587 289.022 372.1C289.022 370.613 290.206 369.647 292.247 369.647C292.962 369.647 293.541 369.764 294.003 369.874V370.798C293.457 370.663 292.693 370.579 292.197 370.579C290.903 370.579 290.164 371.167 290.164 372.1C290.164 373.032 290.903 373.629 292.197 373.629C292.693 373.629 293.457 373.545 294.003 373.41V374.334C293.541 374.444 292.928 374.561 292.214 374.561ZM295.713 368.58L296.822 368.269V369.731H299.325V370.537H296.822V372.654C296.822 373.309 297.217 373.604 298.107 373.604C298.452 373.604 299.04 373.553 299.485 373.402V374.301C299.057 374.494 298.368 374.553 297.956 374.553C296.587 374.553 295.713 373.889 295.713 372.881V370.537H294.529V369.731H295.713V368.58ZM300.17 372.1C300.17 370.63 301.296 369.647 303.102 369.647C304.917 369.647 306.034 370.63 306.034 372.1C306.034 373.57 304.917 374.553 303.102 374.553C301.296 374.553 300.17 373.57 300.17 372.1ZM301.313 372.1C301.313 373.032 302.035 373.629 303.102 373.629C304.177 373.629 304.891 373.032 304.891 372.1C304.891 371.167 304.177 370.579 303.102 370.579C302.035 370.579 301.313 371.167 301.313 372.1ZM307.126 369.731H308.118L308.227 370.428C308.773 369.958 309.52 369.647 310.276 369.647C310.596 369.647 310.932 369.689 311.058 369.722V370.697C310.864 370.655 310.646 370.638 310.444 370.638C309.596 370.647 308.706 370.957 308.235 371.512V374.469H307.126V369.731ZM319.749 374.469H318.825L318.733 374.141C318.288 374.326 317.574 374.553 316.75 374.553C315.02 374.553 313.928 373.578 313.928 372.1C313.928 370.621 315.02 369.647 316.75 369.647C317.523 369.647 318.195 369.84 318.64 370.017V368.252H319.749V374.469ZM316.944 373.629C317.641 373.629 318.296 373.469 318.64 373.309V370.89C318.288 370.731 317.624 370.571 316.935 370.571C315.742 370.571 315.062 371.167 315.062 372.1C315.062 373.032 315.742 373.629 316.944 373.629ZM323.708 369.647C325.262 369.647 326.262 370.445 326.262 371.722C326.262 372.033 326.22 372.301 326.178 372.453H322.036C322.204 373.192 322.901 373.646 323.994 373.646C324.54 373.646 325.43 373.561 325.993 373.427V374.334C325.522 374.444 324.8 374.561 324.052 374.561C322.036 374.553 320.843 373.587 320.843 372.1C320.843 370.647 321.986 369.647 323.708 369.647ZM322.028 371.722H325.186C325.186 371.025 324.573 370.563 323.666 370.563C322.775 370.563 322.179 371.008 322.028 371.722ZM329.303 371.529C329.303 369.714 330.664 368.504 332.815 368.504C334.974 368.504 336.326 369.714 336.326 371.529C336.326 373.343 334.974 374.553 332.815 374.553C330.664 374.553 329.303 373.343 329.303 371.529ZM330.462 371.529C330.462 372.805 331.412 373.62 332.815 373.62C334.226 373.62 335.167 372.805 335.167 371.529C335.167 370.252 334.226 369.445 332.815 369.445C331.412 369.445 330.462 370.252 330.462 371.529ZM337.504 369.739H338.428L338.521 370.059C338.966 369.874 339.68 369.655 340.503 369.655C342.242 369.655 343.326 370.63 343.326 372.108C343.326 373.587 342.242 374.561 340.503 374.561C339.73 374.561 339.058 374.36 338.613 374.183V375.821H337.504V369.739ZM340.31 370.571C339.621 370.571 338.957 370.739 338.613 370.899V373.318C338.966 373.469 339.638 373.637 340.327 373.637C341.52 373.637 342.2 373.032 342.2 372.108C342.2 371.176 341.52 370.571 340.31 370.571ZM347.031 369.647C348.585 369.647 349.584 370.445 349.584 371.722C349.584 372.033 349.542 372.301 349.5 372.453H345.359C345.527 373.192 346.224 373.646 347.316 373.646C347.862 373.646 348.753 373.561 349.316 373.427V374.334C348.845 374.444 348.123 374.561 347.375 374.561C345.359 374.553 344.166 373.587 344.166 372.1C344.166 370.647 345.309 369.647 347.031 369.647ZM345.351 371.722H348.509C348.509 371.025 347.896 370.563 346.989 370.563C346.098 370.563 345.502 371.008 345.351 371.722ZM350.679 369.731H351.67L351.78 370.428C352.326 369.958 353.073 369.647 353.829 369.647C354.148 369.647 354.484 369.689 354.61 369.722V370.697C354.417 370.655 354.199 370.638 353.997 370.638C353.149 370.647 352.258 370.957 351.788 371.512V374.469H350.679V369.731ZM355.134 373.032C355.134 372.083 355.941 371.596 357.52 371.596C358.024 371.596 358.839 371.629 359.267 371.688C359.267 371.621 359.267 371.554 359.267 371.478C359.251 370.823 358.839 370.563 357.856 370.563C357.1 370.563 356.235 370.647 355.63 370.781V369.874C356.134 369.764 357.016 369.647 357.848 369.647C359.587 369.647 360.385 370.193 360.385 371.403V374.469H359.377L359.301 373.839C358.864 374.301 358.175 374.561 357.251 374.561C355.89 374.561 355.134 374.015 355.134 373.032ZM359.276 372.822V372.385C358.814 372.377 358.007 372.377 357.562 372.377C356.705 372.377 356.268 372.612 356.268 373.066C356.268 373.503 356.68 373.721 357.52 373.721C358.251 373.721 359.099 373.402 359.276 372.822ZM364.577 374.561L364.46 374.763C364.796 374.922 365.014 375.242 365.014 375.586C365.014 376.233 364.409 376.594 363.292 376.502V375.855C363.754 375.922 364.065 375.737 364.082 375.384C364.09 375.174 363.855 374.897 363.536 374.763L363.695 374.486C362.234 374.234 361.402 373.351 361.402 372.1C361.402 370.613 362.586 369.647 364.628 369.647C365.342 369.647 365.921 369.764 366.383 369.874V370.798C365.837 370.663 365.073 370.579 364.577 370.579C363.284 370.579 362.544 371.167 362.544 372.1C362.544 373.032 363.284 373.629 364.577 373.629C365.073 373.629 365.837 373.545 366.383 373.41V374.334C365.821 374.469 365.216 374.561 364.577 374.561ZM370 368.815C369.816 368.698 369.614 368.572 369.37 368.572C369.152 368.572 368.9 368.681 368.623 368.992V368.11C368.925 367.774 369.177 367.656 369.412 367.656C369.732 367.656 369.992 367.866 370.252 368.009C370.378 368.084 370.546 368.143 370.723 368.143C370.966 368.143 371.252 368.042 371.554 367.748V368.63C371.218 368.95 370.924 369.059 370.672 369.059C370.404 369.059 370.185 368.933 370 368.815ZM367.153 372.1C367.153 370.63 368.278 369.647 370.084 369.647C371.899 369.647 373.016 370.63 373.016 372.1C373.016 373.57 371.899 374.553 370.084 374.553C368.278 374.553 367.153 373.57 367.153 372.1ZM368.295 372.1C368.295 373.032 369.017 373.629 370.084 373.629C371.16 373.629 371.874 373.032 371.874 372.1C371.874 371.167 371.16 370.579 370.084 370.579C369.017 370.579 368.295 371.167 368.295 372.1ZM376.654 369.647C378.208 369.647 379.208 370.445 379.208 371.722C379.208 372.033 379.166 372.301 379.124 372.453H374.982C375.15 373.192 375.847 373.646 376.939 373.646C377.485 373.646 378.376 373.561 378.939 373.427V374.334C378.468 374.444 377.746 374.561 376.998 374.561C374.982 374.553 373.789 373.587 373.789 372.1C373.789 370.647 374.932 369.647 376.654 369.647ZM374.974 371.722H378.132C378.132 371.025 377.519 370.563 376.612 370.563C375.721 370.563 375.125 371.008 374.974 371.722ZM384.049 373.099C384.049 372.679 383.696 372.545 382.545 372.503C381.369 372.478 380.05 372.411 380.05 371.1C380.05 370.117 380.865 369.664 382.57 369.647C383.368 369.638 384.099 369.731 384.83 369.882V370.806C383.965 370.63 383.108 370.521 382.369 370.537C381.52 370.571 381.159 370.756 381.159 371.092C381.159 371.503 381.512 371.621 382.864 371.671C383.906 371.688 385.141 371.789 385.141 373.024C385.141 374.057 384.292 374.561 382.453 374.544C381.512 374.536 380.579 374.393 380.05 374.292V373.343C380.453 373.41 381.495 373.637 382.604 373.646C383.57 373.654 384.049 373.486 384.049 373.099Z" fill="#878787"/>
<rect x="135.982" y="276.624" width="178.05" height="40.1904" rx="5.42322" fill="#EFEFEF"/>
<path d="M178.78 293.024V287.144H180.116V289.395H183.821V287.144H185.156V293.024H183.821V290.487H180.116V293.024H178.78ZM187.932 286.766L189.318 284.833H190.687L189.217 286.766H187.932ZM186.705 293.024V287.144H192.174V288.244H188.041V289.462H191.477V290.495H188.041V291.923H192.174V293.024H186.705ZM193.465 293.024V287.144H194.8V291.923H198.665V293.024H193.465ZM199.872 293.024V287.144H203.224C205.231 287.144 206.416 288.269 206.416 290.084C206.416 291.898 205.231 293.024 203.224 293.024H199.872ZM203.224 288.236H201.207V291.932H203.224C204.332 291.932 205.055 291.277 205.055 290.084C205.055 288.891 204.332 288.236 203.224 288.236ZM207.624 293.024V287.144H213.093V288.244H208.96V289.462H212.396V290.495H208.96V291.923H213.093V293.024H207.624ZM214.384 293.024V287.144H217.879C219.685 287.144 220.516 287.807 220.516 289.076C220.516 290.101 219.987 290.722 219.021 290.823C219.004 290.831 218.954 290.84 218.937 290.84C219.441 291.285 219.76 291.865 220.289 291.865H221.012V293.041H220.096C218.567 293.041 218.332 291.058 216.803 290.932H215.72V293.024H214.384ZM217.862 288.236H215.72V289.983H217.862C218.769 289.983 219.155 289.697 219.155 289.109C219.155 288.521 218.769 288.236 217.862 288.236ZM224.187 293.024V287.144H225.657L227.858 289.933H228.077L230.269 287.144H231.748V293.024H230.404V289.084H230.269L228.513 291.344H227.421L225.666 289.084H225.523V293.024H224.187ZM233.293 293.024V287.144H234.629V293.024H233.293ZM236.173 293.024V287.144H237.508V291.923H241.373V293.024H236.173ZM241.958 293.024L244.411 287.144H246.822L249.275 293.024H247.847L247.351 291.806H243.89L243.386 293.024H241.958ZM244.285 290.781H246.948L245.923 288.269H245.31L244.285 290.781ZM253.3 292.016C253.804 292.016 254.392 291.982 254.854 291.932V289.874H256.123V292.822C255.384 292.999 254.35 293.108 253.342 293.108C250.931 293.108 249.528 291.932 249.528 290.084C249.528 288.236 250.931 287.06 253.409 287.06C254.409 287.06 255.199 287.144 255.846 287.312V288.437C255.199 288.261 254.123 288.152 253.3 288.152C251.771 288.152 250.889 288.866 250.889 290.084C250.889 291.302 251.797 292.016 253.3 292.016ZM257.502 293.024V287.144H260.997C262.803 287.144 263.634 287.807 263.634 289.076C263.634 290.101 263.105 290.722 262.139 290.823C262.122 290.831 262.072 290.84 262.055 290.84C262.559 291.285 262.878 291.865 263.407 291.865H264.13V293.041H263.214C261.685 293.041 261.45 291.058 259.921 290.932H258.838V293.024H257.502ZM260.98 288.236H258.838V289.983H260.98C261.887 289.983 262.273 289.697 262.273 289.109C262.273 288.521 261.887 288.236 260.98 288.236ZM265.123 293.024V287.144H270.592V288.244H266.459V289.462H269.895V290.495H266.459V291.923H270.592V293.024H265.123Z" fill="#565656"/>
<path d="M192.314 306.414V300.533H195.716C197.438 300.533 198.253 301.197 198.253 302.482C198.253 303.776 197.438 304.431 195.716 304.431H193.456V306.414H192.314ZM195.691 301.474H193.456V303.499H195.691C196.682 303.499 197.085 303.171 197.085 302.482C197.085 301.802 196.682 301.474 195.691 301.474ZM199.533 306.414V300.533H202.935C204.657 300.533 205.472 301.188 205.472 302.415C205.472 303.465 204.909 304.103 203.927 304.154C203.918 304.162 203.868 304.162 203.851 304.162C204.431 304.691 204.758 305.414 205.329 305.414H206.044V306.422H205.128C203.658 306.422 203.498 304.406 201.961 304.238H200.676V306.414H199.533ZM202.91 301.474H200.676V303.389H202.91C203.901 303.389 204.305 303.079 204.305 302.432C204.305 301.785 203.901 301.474 202.91 301.474ZM207.089 306.414V300.533H212.389V301.491H208.231V302.885H211.701V303.818H208.231V305.456H212.389V306.414H207.089ZM217.967 304.649C217.967 303.977 217.211 303.935 215.934 303.927C214.808 303.919 213.414 303.885 213.414 302.222C213.414 300.836 214.64 300.466 216.346 300.449C217.236 300.441 218.093 300.533 218.815 300.684V301.659C218.017 301.483 216.976 301.365 216.203 301.373C215.296 301.398 214.565 301.609 214.565 302.264C214.565 302.995 215.43 303.003 216.077 302.995C217.782 302.995 219.109 303.062 219.109 304.683C219.109 305.91 218.093 306.514 216.018 306.489C215.052 306.481 214.027 306.346 213.439 306.229V305.246C213.935 305.338 215.018 305.548 216.06 305.548C217.312 305.557 217.967 305.271 217.967 304.649ZM220.387 306.414V300.533H221.529V306.414H220.387ZM223.143 306.414V300.533H226.394C228.318 300.533 229.519 301.659 229.519 303.473C229.519 305.288 228.318 306.414 226.394 306.414H223.143ZM226.394 301.474H224.286V305.473H226.394C227.57 305.473 228.36 304.75 228.36 303.473C228.36 302.197 227.57 301.474 226.394 301.474ZM230.797 306.414V300.533H236.098V301.491H231.939V302.885H235.409V303.818H231.939V305.456H236.098V306.414H230.797ZM237.458 306.414V300.533H238.651L242.053 304.582H242.179V300.533H243.322V306.414H242.146L238.735 302.348H238.601V306.414H237.458ZM247.065 306.414V301.491H244.268V300.533H251.014V301.491H248.208V306.414H247.065ZM251.962 306.414V300.533H257.263V301.491H253.105V302.885H256.574V303.818H253.105V305.456H257.263V306.414H251.962Z" fill="#878787"/>
<path d="M225.612 365L225.612 315.674" stroke="#AF8E60" stroke-width="1.01685"/>
<path d="M224.934 279.728L227.869 276.793L224.934 273.858L221.999 276.793L224.934 279.728ZM224.426 239.339V276.793H225.443V239.339H224.426Z" fill="#AF8E60"/>
<path d="M125.482 102.166L128.417 99.2304L125.482 96.295L122.547 99.2304L125.482 102.166ZM330.768 102.166L333.704 99.2304L330.768 96.295L327.833 99.2304L330.768 102.166ZM125.99 99.2304V82.4263H124.974V99.2304H125.99ZM133.617 74.7999H322.633V73.7831H133.617V74.7999ZM330.26 82.4263V99.2304H331.277V82.4263H330.26ZM322.633 74.7999C326.845 74.7999 330.26 78.2144 330.26 82.4263H331.277C331.277 77.6528 327.407 73.7831 322.633 73.7831V74.7999ZM125.99 82.4263C125.99 78.2144 129.405 74.7999 133.617 74.7999V73.7831C128.843 73.7831 124.974 77.6528 124.974 82.4263H125.99Z" fill="#AF8E60"/>
<path d="M225.612 74.4229L225.612 50.6597" stroke="#AF8E60" stroke-width="1.01685"/>
<path d="M247.468 364.633L244.532 361.697L241.597 364.633L244.532 367.568L247.468 364.633ZM203.663 364.633L206.599 367.568L209.534 364.633L206.599 361.697L203.663 364.633ZM244.532 364.124H225.566V365.141H244.532V364.124ZM225.566 364.124H206.599V365.141H225.566V364.124Z" fill="#AF8E60"/>
</g>
<defs>
<clipPath id="clip0_539_87">
<rect width="451" height="421" fill="white"/>
</clipPath>
</defs>
</svg>
