<?xml version="1.0" encoding="utf-8"?>
<!-- Generator: Adobe Illustrator 27.5.0, SVG Export Plug-In . SVG Version: 6.00 Build 0)  -->
<svg version="1.1" id="Camada_1" xmlns="http://www.w3.org/2000/svg" xmlns:xlink="http://www.w3.org/1999/xlink" x="0px" y="0px"
	 viewBox="0 0 442.5 277.2" style="enable-background:new 0 0 442.5 277.2;" xml:space="preserve">
<style type="text/css">
	.st0{fill:#E1C087;}
	.st1{fill:url(#SVGID_1_);}
	.st2{fill:url(#SVGID_00000114779556546456256110000001998360783150943639_);}
	.st3{fill:url(#SVGID_00000021111080503753755710000007524850065673679511_);}
	.st4{fill:url(#SVGID_00000181058823774010246650000009333255056906020513_);}
	.st5{fill:url(#SVGID_00000042007498747944753400000000899530662332375185_);}
	.st6{fill:url(#SVGID_00000005266028720080308460000016008812702836876980_);}
	.st7{fill:#BBBDB8;}
	.st8{font-family:'AderoTrial-SemiBold';}
	.st9{font-size:80.1658px;}
</style>
<g>
	<g>
		<path class="st0" d="M351.1,233c-2.4,1.7-4.7,3.5-6.9,5.4c0.1,10.9-4,38-14.7,38.8c-4.6,0.3-6.3-4.9-6.6-8.7
			c-0.9-11.9,9.4-24.2,18.3-32.1l-0.1-1.4c-0.2-2.5-0.9-8.6-3.3-8.4c-4.6,0.3-15.1,19.6-22.6,20.1c-2.7,0.2-4.9-2-5.1-5.4
			c-0.5-6.4,5-16.1,13.8-16.7c2.7-0.2,5.4,0.5,7.5,2.3c1.5-1.4,3.2-3,5.1-3.1c4.6-0.3,6.9,5.4,7.5,10.3c1.5-1.2,9.2-7.1,10.4-7.2
			c0.9-0.1,2.1,1.1,2.2,2C356.6,229.8,356,229.4,351.1,233z M329.8,228.5c-1.1-1-2.7-1.1-4.3-1c-8.1,0.6-12.9,9.6-12.5,15.3
			c0.1,1.2,0.3,1.3,0.6,1.3l0.2,0C318,243.7,326.3,232.2,329.8,228.5z M341.2,241.2c-7.5,7.1-16.1,18.2-15.3,28.6
			c0.1,1.6,0.5,4.7,2,4.6C335,273.8,340.5,255.3,341.2,241.2z"/>
		<path class="st0" d="M374.3,233.3c-2.7,0.2-5.5-0.1-8-1.2c-1,3-3.1,6.2-6.3,6.5c-2.9,0.2-6.1-2.2-6.4-6.8
			c-0.5-6.2,3.3-10.8,5.8-11c0.3,0,0.7,0.1,1,0.3c0.2-1.2,0.6-2.7,1.7-2.8c1.7-0.1,4.9,1.4,5.3,6.2c0.1,1.8-0.2,3.8-0.5,5.5
			c1.6,0.6,3.4,0.8,5.2,0.7c4.6-0.3,8.9-3,11.8-5.5c0.2-0.1,0.3-0.2,0.5-0.3c1-0.1,2.2,1.1,2.3,2
			C386.9,227.6,380.5,232.8,374.3,233.3z M363.5,230.1c-1.7-1.7-2.7-3.9-3-6.3c-2.8,1.6-4.1,5.9-3.9,9.1c0.2,2.9,1.1,3,1.7,3l0.3,0
			C360.4,235.7,362.4,233.3,363.5,230.1z M364.2,227.6c0.3-1.4,0.4-3,0.3-4.3c0-0.3-0.3-2.2-0.6-2.2c-0.4,0-0.5,3.1-0.5,3.7
			C363.6,226.5,364.1,227.3,364.2,227.6z"/>
		<path class="st0" d="M390,246.3c-2.8,0.2-6.1-2.2-6.6-8.4c-1.2-16,11.5-46.2,12.8-46.3c0.9-0.1,2.2,1,2.3,1.9
			c0,0-13.3,29.1-12,45.3c0.1,1.4,0.5,4.8,1.9,4.7c3.9-0.3,14.4-14.2,19.6-20.6c0.1-0.2,0.3-0.2,0.5-0.3c0.9-0.1,2.2,1.1,2.2,2
			C410.7,224.8,395.6,245.9,390,246.3z"/>
		<path class="st0" d="M440.3,184.2c-5.8,18.1-10,36.6-9.2,55.7c0,0.5-0.3,0.7-0.7,0.8c-1,0.1-2.2-1-2.2-2c-0.4-5.8,0-16.5,1.9-27.7
			c-2.9,6.5-10.4,23-17.3,23.5c-3,0.2-5.4-2.4-5.6-5.8c-0.8-10.7,14.7-16.4,15.7-16.5c0.8-0.1,1.8,0.8,2.2,1.6
			c4.8-10,8.9-21.3,12.5-31.9c2.2-6.7,2.1-6.7,2.7-6.7c0.9-0.1,2.2,1.1,2.3,2C442.6,177.5,440.8,182.5,440.3,184.2z M424.4,215.1
			c-10,3.6-14.7,9.8-14.3,14.9c0.1,0.8,0.3,1.8,1.1,1.7C416.1,231.4,422.3,219.4,424.4,215.1z"/>
	</g>
	<g>
		<g>
			<linearGradient id="SVGID_1_" gradientUnits="userSpaceOnUse" x1="100.0599" y1="60.5161" x2="187.1108" y2="60.5161">
				<stop  offset="0.2771" style="stop-color:#CFA83D"/>
				<stop  offset="1" style="stop-color:#FDF28E"/>
			</linearGradient>
			<path class="st1" d="M185.8,27.2L169.4,2.4c-2.1-3.1-6.7-3.1-8.7,0l-59.3,90.1c-0.9,1.3-1.3,2.9-1.3,4.5v22.3l0,0
				c0,1,0.8,1.8,1.8,1.8h23.5c2.8,0,5.4-1.4,6.9-3.7l53.4-81.1C187.6,33.4,187.6,29.9,185.8,27.2z"/>
			
				<linearGradient id="SVGID_00000041986352004933223450000011079821091925901969_" gradientUnits="userSpaceOnUse" x1="146.6098" y1="82.6448" x2="242.7293" y2="82.6448">
				<stop  offset="0.2771" style="stop-color:#CFA83D"/>
				<stop  offset="1" style="stop-color:#FDF28E"/>
			</linearGradient>
			<path style="fill:url(#SVGID_00000041986352004933223450000011079821091925901969_);" d="M191.1,46.2l-43.5,66.1
				c-2.5,3.7,0.2,8.7,4.7,8.7h84.8c4.5,0,7.2-5,4.7-8.7l-43.5-66.1C196.6,43.6,192.8,43.6,191.1,46.2z"/>
			
				<linearGradient id="SVGID_00000052076677894379975340000010210655467581205949_" gradientUnits="userSpaceOnUse" x1="202.2248" y1="60.5161" x2="289.28" y2="60.5161">
				<stop  offset="0.2771" style="stop-color:#CFA83D"/>
				<stop  offset="1" style="stop-color:#FDF28E"/>
			</linearGradient>
			<path style="fill:url(#SVGID_00000052076677894379975340000010210655467581205949_);" d="M289.3,119.2V96.9
				c0-1.6-0.5-3.1-1.3-4.5L228.7,2.4c-2.1-3.1-6.7-3.1-8.7,0l-16.4,24.9c-1.8,2.7-1.8,6.2,0,9l53.4,81.2c1.5,2.3,4.1,3.7,6.9,3.7
				h23.5C288.4,121,289.3,120.2,289.3,119.2L289.3,119.2z"/>
		</g>
		<g>
			
				<linearGradient id="SVGID_00000013898706224214810480000004590980829657910673_" gradientUnits="userSpaceOnUse" x1="-441.8649" y1="154.8612" x2="-252.6448" y2="154.8612" gradientTransform="matrix(1 0 0 1 541.9247 -94.3451)">
				<stop  offset="0" style="stop-color:#C5A158"/>
				<stop  offset="0.1892" style="stop-color:#CDAE67"/>
				<stop  offset="0.5551" style="stop-color:#E2D08F"/>
				<stop  offset="1" style="stop-color:#FFFFC8"/>
			</linearGradient>
			<path style="fill:url(#SVGID_00000013898706224214810480000004590980829657910673_);" d="M185.8,27.2L169.4,2.4
				c-2.1-3.1-6.7-3.1-8.7,0l-59.3,90.1c-0.9,1.3-1.3,2.9-1.3,4.5v22.3l0,0c0,1,0.8,1.8,1.8,1.8h23.5c2.8,0,5.4-1.4,6.9-3.7
				l53.4-81.1C187.6,33.4,187.6,29.9,185.8,27.2z"/>
			
				<linearGradient id="SVGID_00000081637137972848227630000011804609642342129542_" gradientUnits="userSpaceOnUse" x1="-441.8649" y1="154.8612" x2="-252.6448" y2="154.8612" gradientTransform="matrix(1 0 0 1 541.9247 -94.3451)">
				<stop  offset="0" style="stop-color:#C5A158"/>
				<stop  offset="0.1892" style="stop-color:#CDAE67"/>
				<stop  offset="0.5551" style="stop-color:#E2D08F"/>
				<stop  offset="1" style="stop-color:#FFFFC8"/>
			</linearGradient>
			<path style="fill:url(#SVGID_00000081637137972848227630000011804609642342129542_);" d="M191.1,46.2l-43.5,66.1
				c-2.5,3.7,0.2,8.7,4.7,8.7h84.8c4.5,0,7.2-5,4.7-8.7l-43.5-66.1C196.6,43.6,192.8,43.6,191.1,46.2z"/>
			
				<linearGradient id="SVGID_00000174601135375141768550000016532145864526384545_" gradientUnits="userSpaceOnUse" x1="-441.8649" y1="154.8612" x2="-252.6448" y2="154.8612" gradientTransform="matrix(1 0 0 1 541.9247 -94.3451)">
				<stop  offset="0" style="stop-color:#C5A158"/>
				<stop  offset="0.1892" style="stop-color:#CDAE67"/>
				<stop  offset="0.5551" style="stop-color:#E2D08F"/>
				<stop  offset="1" style="stop-color:#FFFFC8"/>
			</linearGradient>
			<path style="fill:url(#SVGID_00000174601135375141768550000016532145864526384545_);" d="M289.3,119.2V96.9
				c0-1.6-0.5-3.1-1.3-4.5L228.7,2.4c-2.1-3.1-6.7-3.1-8.7,0l-16.4,24.9c-1.8,2.7-1.8,6.2,0,9l53.4,81.2c1.5,2.3,4.1,3.7,6.9,3.7
				h23.5C288.4,121,289.3,120.2,289.3,119.2L289.3,119.2z"/>
		</g>
	</g>
	<text transform="matrix(1 0 0 1 -1.831055e-04 204.1713)" class="st7 st8 st9">MPOPO</text>
</g>
</svg>
