<svg xmlns="http://www.w3.org/2000/svg" xmlns:xlink="http://www.w3.org/1999/xlink" width="32" height="32" viewBox="0 0 32 32"><defs><style>.a{fill:url(#a);}.b{fill:url(#b);}.c{fill:url(#c);}</style><linearGradient id="a" x1="0.084" y1="0.916" x2="0.916" y2="0.084" gradientUnits="objectBoundingBox"><stop offset="0" stop-color="#ffd600"/><stop offset="0.5" stop-color="#ff0100"/><stop offset="1" stop-color="#d800b9"/></linearGradient><linearGradient id="b" x1="0.146" y1="0.854" x2="0.854" y2="0.146" gradientUnits="objectBoundingBox"><stop offset="0" stop-color="#ff6400"/><stop offset="0.5" stop-color="#ff0100"/><stop offset="1" stop-color="#fd0056"/></linearGradient><linearGradient id="c" x1="0.146" y1="0.854" x2="0.854" y2="0.146" gradientUnits="objectBoundingBox"><stop offset="0" stop-color="#f30072"/><stop offset="1" stop-color="#e50097"/></linearGradient></defs><path class="a" d="M31.9,9.4A11.746,11.746,0,0,0,31.16,5.52a7.842,7.842,0,0,0-1.845-2.834A7.844,7.844,0,0,0,26.48.84,11.744,11.744,0,0,0,22.6.1C20.89.019,20.345,0,16,0S11.11.019,9.4.1A11.748,11.748,0,0,0,5.52.84,7.842,7.842,0,0,0,2.686,2.686,7.843,7.843,0,0,0,.84,5.519,11.746,11.746,0,0,0,.1,9.4C.019,11.11,0,11.655,0,16s.019,4.891.1,6.6A11.744,11.744,0,0,0,.84,26.48a7.841,7.841,0,0,0,1.845,2.834A7.84,7.84,0,0,0,5.52,31.16,11.74,11.74,0,0,0,9.4,31.9c1.707.078,2.251.1,6.6.1s4.89-.018,6.6-.1a11.742,11.742,0,0,0,3.884-.744A8.18,8.18,0,0,0,31.16,26.48,11.743,11.743,0,0,0,31.9,22.6c.078-1.707.1-2.251.1-6.6S31.981,11.11,31.9,9.4Zm-2.88,13.062a8.853,8.853,0,0,1-.551,2.971,5.3,5.3,0,0,1-3.037,3.037,8.853,8.853,0,0,1-2.971.551c-1.687.077-2.193.093-6.465.093s-4.779-.016-6.466-.093a8.855,8.855,0,0,1-2.971-.551,4.959,4.959,0,0,1-1.84-1.2,4.957,4.957,0,0,1-1.2-1.84,8.853,8.853,0,0,1-.551-2.971C2.9,20.779,2.883,20.272,2.883,16s.016-4.778.093-6.466a8.859,8.859,0,0,1,.551-2.971,4.96,4.96,0,0,1,1.2-1.84,4.954,4.954,0,0,1,1.84-1.2,8.851,8.851,0,0,1,2.971-.551C11.222,2.9,11.728,2.883,16,2.883h0c4.272,0,4.778.016,6.466.094a8.854,8.854,0,0,1,2.971.551,4.961,4.961,0,0,1,1.84,1.2,4.954,4.954,0,0,1,1.2,1.84,8.844,8.844,0,0,1,.551,2.971c.077,1.687.093,2.193.093,6.465S29.1,20.778,29.024,22.466Zm0,0"/><path class="b" d="M132.755,124.539a8.216,8.216,0,1,0,8.216,8.216A8.216,8.216,0,0,0,132.755,124.539Zm0,13.55a5.333,5.333,0,1,1,5.333-5.333A5.333,5.333,0,0,1,132.755,138.089Zm0,0" transform="translate(-116.755 -116.755)"/><path class="c" d="M365.77,90.545a1.92,1.92,0,1,1-1.92-1.92A1.92,1.92,0,0,1,365.77,90.545Zm0,0" transform="translate(-339.309 -83.086)"/></svg>