<svg xmlns="http://www.w3.org/2000/svg" width="32" height="32" viewBox="0 0 32 32"><defs><style>.a{fill:#0077b5;}.b{fill:#fff;}</style></defs><g transform="translate(0 0)"><rect class="a" width="32" height="32" rx="4"/><g transform="translate(6.073 6)"><path class="b" d="M38.855,35.727A2.727,2.727,0,1,1,36.127,33a2.727,2.727,0,0,1,2.727,2.727Z" transform="translate(-33.4 -33)"/><path class="b" d="M40.985,69.956V82.005a.675.675,0,0,1-.675.678H37.436a.675.675,0,0,1-.676-.676V69.956a.676.676,0,0,1,.676-.676h2.875A.676.676,0,0,1,40.985,69.956Z" transform="translate(-36.149 -62.684)"/><path class="b" d="M83.592,75.329v5.833a.62.62,0,0,1-.622.622H79.879a.62.62,0,0,1-.622-.622V75.509c0-.844.247-3.695-2.205-3.695-1.9,0-2.287,1.951-2.364,2.827v6.52a.622.622,0,0,1-.613.622H71.09a.62.62,0,0,1-.62-.622V69a.62.62,0,0,1,.62-.622h2.985A.622.622,0,0,1,74.7,69v1.051a4.232,4.232,0,0,1,3.982-1.875C83.621,68.18,83.592,72.795,83.592,75.329Z" transform="translate(-63.73 -61.784)"/></g></g></svg>