<svg xmlns="http://www.w3.org/2000/svg" width="32" height="32" viewBox="0 0 32 32"><defs><style>.a{fill:#00d264;}.a,.b{fill-rule:evenodd;}.b{fill:#fff;}</style></defs><path class="a" d="M24,32H8a8,8,0,0,1-8-8V8A8,8,0,0,1,8,0H24a8,8,0,0,1,8,8V24a8,8,0,0,1-8,8"/><g transform="translate(4.999 3.998)"><path class="b" d="M15.836,27.545a1,1,0,0,1,.8.109,9.491,9.491,0,1,0-3.291-3.287,1,1,0,0,1,.108.794c-.278.986-.95,3.338-.95,3.338l3.337-.954Zm-4.227-2.18a11.5,11.5,0,1,1,4.024,4.024l-4.768,1.362a.5.5,0,0,1-.618-.618Z" transform="translate(-9.998 -7.997)"/><path class="b" d="M21.973,22.236a9.352,9.352,0,0,0,8.612,8.676h0a2.482,2.482,0,0,0,1.947-.72l.349-.349a.88.88,0,0,0,.257-.621V28.48a.5.5,0,0,0-.276-.447l-2.23-1.115a.5.5,0,0,0-.577.094l-.97.97a.5.5,0,0,1-.451.137h0A5,5,0,0,1,24.707,24.2v0a.5.5,0,0,1,.137-.451l.97-.97a.5.5,0,0,0,.094-.578l-1.115-2.229a.5.5,0,0,0-.448-.276h-.63a1.069,1.069,0,0,0-.794.353l-.332.369A2.43,2.43,0,0,0,21.97,22.2c0,.011,0,.022,0,.034Z" transform="translate(-15.981 -13.841)"/></g></svg>